<?xml version="1.0" encoding="UTF-8"?>
<!DOCTYPE svg PUBLIC "-//W3C//DTD SVG 1.1//EN" "http://www.w3.org/Graphics/SVG/1.1/DTD/svg11.dtd">
<!-- Creator: CorelDRAW X7 -->
<svg xmlns="http://www.w3.org/2000/svg" xml:space="preserve" width="104px" height="90px" version="1.1" style="shape-rendering:geometricPrecision; text-rendering:geometricPrecision; image-rendering:optimizeQuality; fill-rule:evenodd; clip-rule:evenodd"
viewBox="0 0 1048734 906686"
 xmlns:xlink="http://www.w3.org/1999/xlink">
 <defs>
  <style type="text/css">
   <![CDATA[
    .str0 {stroke:#7AABDE;stroke-width:10078.3}
    .fil228 {fill:#FEFEFE}
    .fil229 {fill:#FEFEFE}
    .fil0 {fill:#FCFBFB}
    .fil1 {fill:#FAFBFB}
    .fil2 {fill:#FAF9F9}
    .fil3 {fill:#F8F8F9}
    .fil4 {fill:#F6F8F9}
    .fil5 {fill:#F6F5F6}
    .fil6 {fill:#F6F4F7}
    .fil7 {fill:#F6F4F5}
    .fil9 {fill:#F3F3F5}
    .fil8 {fill:#F3F3F3}
    .fil10 {fill:#F3F1F2}
    .fil11 {fill:#F2F2F3}
    .fil12 {fill:#F2F0F2}
    .fil13 {fill:#EFEFF2}
    .fil14 {fill:#EFEFF0}
    .fil15 {fill:#EEEFF2}
    .fil16 {fill:#EEEFF0}
    .fil17 {fill:#EDEDEF}
    .fil18 {fill:#EBECEE}
    .fil19 {fill:#EBEAEC}
    .fil20 {fill:#E9E9EC}
    .fil21 {fill:#E9E9EA}
    .fil22 {fill:#E7E8EA}
    .fil23 {fill:#E7E7E9}
    .fil25 {fill:#E7E7E8}
    .fil24 {fill:#E7E5E8}
    .fil26 {fill:#E4E4E8}
    .fil27 {fill:#E4E4E7}
    .fil28 {fill:#E3E3E7}
    .fil29 {fill:#E3E3E5}
    .fil30 {fill:#E3E1E4}
    .fil31 {fill:#E0E0E3}
    .fil33 {fill:#E0E0E2}
    .fil32 {fill:#E0DFE3}
    .fil34 {fill:#DFDEE1}
    .fil35 {fill:#DFDEDF}
    .fil37 {fill:#DEDCDE}
    .fil36 {fill:#DCDDE0}
    .fil38 {fill:#DCDBDE}
    .fil39 {fill:#DCDADD}
    .fil40 {fill:#DBDADC}
    .fil41 {fill:#DAD9DD}
    .fil42 {fill:#DAD9DB}
    .fil43 {fill:#D8D8DB}
    .fil45 {fill:#D8D8DA}
    .fil44 {fill:#D8D6DA}
    .fil46 {fill:#D8D6D9}
    .fil47 {fill:#D6D6D8}
    .fil48 {fill:#D4D3D8}
    .fil49 {fill:#D4D3D6}
    .fil50 {fill:#D4D1D4}
    .fil51 {fill:#D1D0D3}
    .fil52 {fill:#D0D0D3}
    .fil53 {fill:#D0CFD2}
    .fil54 {fill:#CDCFD1}
    .fil55 {fill:#CDCED0}
    .fil56 {fill:#CDCCCF}
    .fil57 {fill:#CCCDCF}
    .fil58 {fill:#CCCBCF}
    .fil59 {fill:#CCCBCE}
    .fil60 {fill:#CCCACD}
    .fil61 {fill:#C9CACE}
    .fil62 {fill:#C9C9CD}
    .fil63 {fill:#C9C7CA}
    .fil64 {fill:#C8C8CB}
    .fil65 {fill:#C8C6CA}
    .fil67 {fill:#C5C5CA}
    .fil66 {fill:#C5C4C8}
    .fil68 {fill:#C5C3C7}
    .fil69 {fill:#C5C2C7}
    .fil70 {fill:#C3C2C6}
    .fil71 {fill:#C1C1C4}
    .fil72 {fill:#C1BFC3}
    .fil73 {fill:#BEBEC1}
    .fil74 {fill:#BEBCC1}
    .fil75 {fill:#BDBDC1}
    .fil76 {fill:#BDBCBF}
    .fil77 {fill:#BABBBF}
    .fil78 {fill:#BAB9BE}
    .fil79 {fill:#BAB9BC}
    .fil80 {fill:#B8B7BB}
    .fil81 {fill:#B9B7BA}
    .fil82 {fill:#B6B4B9}
    .fil83 {fill:#B4B4B9}
    .fil84 {fill:#B4B4B7}
    .fil85 {fill:#B4B2B6}
    .fil86 {fill:#B2B0B5}
    .fil87 {fill:#B2B0B4}
    .fil88 {fill:#B0AFB2}
    .fil89 {fill:#ADACB3}
    .fil90 {fill:#ADACB1}
    .fil91 {fill:#ADABB0}
    .fil92 {fill:#ACAAAF}
    .fil93 {fill:#ACA9AE}
    .fil94 {fill:#A9A7AC}
    .fil95 {fill:#A6A6AB}
    .fil96 {fill:#A5A5A9}
    .fil98 {fill:#A5A3A8}
    .fil97 {fill:#A5A3A7}
    .fil99 {fill:#A2A1A6}
    .fil100 {fill:#A1A0A4}
    .fil101 {fill:#A19FA5}
    .fil102 {fill:#A19EA3}
    .fil104 {fill:#9E9EA2}
    .fil103 {fill:#9E9CA1}
    .fil105 {fill:#9C9CA1}
    .fil106 {fill:#9D9AA0}
    .fil107 {fill:#99989D}
    .fil109 {fill:#99989C}
    .fil108 {fill:#99979C}
    .fil110 {fill:#99979B}
    .fil111 {fill:#97969B}
    .fil112 {fill:#979499}
    .fil113 {fill:#949397}
    .fil114 {fill:#929096}
    .fil115 {fill:#928F95}
    .fil116 {fill:#918E93}
    .fil117 {fill:#8F8D93}
    .fil118 {fill:#8F8D92}
    .fil119 {fill:#8C8A90}
    .fil120 {fill:#8C898F}
    .fil121 {fill:#8C898E}
    .fil122 {fill:#8A888F}
    .fil123 {fill:#89878D}
    .fil124 {fill:#89858A}
    .fil125 {fill:#868489}
    .fil126 {fill:#848389}
    .fil127 {fill:#838188}
    .fil128 {fill:#838186}
    .fil129 {fill:#837F84}
    .fil130 {fill:#7F7D82}
    .fil131 {fill:#807C82}
    .fil132 {fill:#7E7A81}
    .fil133 {fill:#7D7980}
    .fil134 {fill:#7D797F}
    .fil136 {fill:#7D797D}
    .fil135 {fill:#7A787D}
    .fil137 {fill:#79777C}
    .fil138 {fill:#79757B}
    .fil139 {fill:#79747A}
    .fil140 {fill:#77737A}
    .fil141 {fill:#767279}
    .fil142 {fill:#767277}
    .fil143 {fill:#757276}
    .fil144 {fill:#737176}
    .fil145 {fill:#727074}
    .fil146 {fill:#726E75}
    .fil147 {fill:#6F6C72}
    .fil148 {fill:#6E6B71}
    .fil150 {fill:#6D6A6F}
    .fil149 {fill:#6D6B70}
    .fil151 {fill:#6B696E}
    .fil152 {fill:#6B696D}
    .fil154 {fill:#6A676D}
    .fil153 {fill:#6A676C}
    .fil155 {fill:#68656B}
    .fil156 {fill:#67646A}
    .fil157 {fill:#666368}
    .fil158 {fill:#656267}
    .fil159 {fill:#646166}
    .fil162 {fill:#625F64}
    .fil160 {fill:#636064}
    .fil161 {fill:#625F63}
    .fil163 {fill:#605E63}
    .fil164 {fill:#605D62}
    .fil165 {fill:#5F5C61}
    .fil166 {fill:#5F5B60}
    .fil167 {fill:#5E5A5F}
    .fil168 {fill:#5C595E}
    .fil169 {fill:#5B585D}
    .fil170 {fill:#5B585C}
    .fil171 {fill:#5B575C}
    .fil172 {fill:#5A565A}
    .fil173 {fill:#595459}
    .fil174 {fill:#57545A}
    .fil175 {fill:#575358}
    .fil176 {fill:#575357}
    .fil177 {fill:#565256}
    .fil178 {fill:#555255}
    .fil179 {fill:#535054}
    .fil180 {fill:#524F53}
    .fil181 {fill:#504D51}
    .fil182 {fill:#4F4C50}
    .fil183 {fill:#4F4C4F}
    .fil184 {fill:#4E4B4E}
    .fil185 {fill:#4E4A4E}
    .fil186 {fill:#4D494D}
    .fil187 {fill:#4D484C}
    .fil188 {fill:#4D484C}
    .fil189 {fill:#4A474B}
    .fil190 {fill:#4A464A}
    .fil191 {fill:#494449}
    .fil192 {fill:#484448}
    .fil193 {fill:#464347}
    .fil194 {fill:#464346}
    .fil195 {fill:#454145}
    .fil196 {fill:#454144}
    .fil197 {fill:#444143}
    .fil198 {fill:#434043}
    .fil199 {fill:#413E41}
    .fil200 {fill:#413E41}
    .fil201 {fill:#403D3F}
    .fil202 {fill:#403C3F}
    .fil206 {fill:#3D393B}
    .fil203 {fill:#3E3B3E}
    .fil204 {fill:#3D3B3D}
    .fil205 {fill:#3C3A3C}
    .fil207 {fill:#3B383A}
    .fil208 {fill:#3B3739}
    .fil209 {fill:#3B373A}
    .fil210 {fill:#3A3639}
    .fil211 {fill:#393438}
    .fil212 {fill:#373336}
    .fil213 {fill:#373336}
    .fil214 {fill:#363234}
    .fil215 {fill:#353134}
    .fil216 {fill:#343032}
    .fil217 {fill:#332F31}
    .fil218 {fill:#322E31}
    .fil219 {fill:#322D30}
    .fil220 {fill:#312D2F}
    .fil221 {fill:#302D2E}
    .fil222 {fill:#302C2E}
    .fil223 {fill:#2F2B2D}
    .fil224 {fill:#2E2A2B}
    .fil225 {fill:#2E292B}
    .fil226 {fill:#2C282A}
    .fil227 {fill:#2B2829}
    .fil230 {fill:#7AABDE}
   ]]>
  </style>
 </defs>
 <g id="Plan_x0020_1">
  <metadata id="CorelCorpID_0Corel-Layer"/>
  <g id="_509178280">
   <g>
    <path class="fil0" d="M1048734 447715c0,239915 -234763,434400 -524355,434400 -289604,0 -524367,-194485 -524367,-434400 0,-239915 234763,-434400 524367,-434400 289592,0 524355,194485 524355,434400z"/>
    <path class="fil1" d="M1046390 447715c0,238844 -233716,432461 -522011,432461 -288307,0 -522023,-193617 -522023,-432461 0,-238844 233716,-432461 522023,-432461 288295,0 522011,193617 522011,432461z"/>
    <path class="fil1" d="M1045616 447715c0,238487 -233370,431818 -521237,431818 -287879,-12 -521250,-193331 -521250,-431818 0,-238487 233371,-431806 521250,-431806 287867,0 521237,193331 521237,431806z"/>
    <path class="fil2" d="M1044831 447715c0,238130 -233014,431164 -520452,431164 -287451,0 -520464,-193034 -520464,-431164 0,-238118 233013,-431164 520464,-431164 287438,0 520452,193046 520452,431164z"/>
    <path class="fil2" d="M1044046 447715c0,237773 -232669,430521 -519667,430521 -287010,0 -519679,-192748 -519679,-430521 0,-237773 232669,-430509 519679,-430509 287010,0 519667,192748 519667,430509z"/>
    <path class="fil2" d="M1042487 447715c0,237059 -231967,429224 -518108,429224 -286154,0 -518120,-192165 -518120,-429224 0,-237059 231966,-429224 518120,-429224 286141,0 518108,192177 518108,429224z"/>
    <path class="fil2" d="M1041702 447715c0,236690 -231610,428582 -517323,428582 -285713,-12 -517335,-191880 -517335,-428582 0,-236690 231622,-428570 517335,-428570 285713,0 517323,191880 517323,428570z"/>
    <path class="fil3" d="M1040928 447715c0,236345 -231276,427927 -516549,427927 -285285,0 -516562,-191582 -516562,-427927 0,-236333 231277,-427927 516562,-427927 285273,0 516549,191594 516549,427927z"/>
    <path class="fil3" d="M1040143 447715c0,235976 -230920,427285 -515764,427285 -284857,0 -515776,-191297 -515776,-427285 0,-235976 230919,-427273 515776,-427273 284844,0 515764,191297 515764,427273z"/>
    <path class="fil4" d="M1039357 447715c0,235619 -230562,426630 -514978,426630 -284428,0 -514991,-191011 -514991,-426630 0,-235619 230563,-426630 514991,-426630 284416,0 514978,191011 514978,426630z"/>
    <path class="fil4" d="M1038584 447715c0,235262 -230217,425988 -514205,425988 -284000,0 -514217,-190726 -514217,-425988 11,-235262 230217,-425988 514217,-425988 283988,0 514205,190726 514205,425988z"/>
    <path class="fil5" d="M1037799 447715c0,234905 -229873,425345 -513420,425345 -283560,-12 -513432,-190440 -513432,-425345 0,-234906 229872,-425333 513432,-425333 283547,0 513420,190427 513420,425333z"/>
    <path class="fil5" d="M1037013 447715c0,234549 -229515,424691 -512634,424691 -283131,0 -512647,-190142 -512647,-424691 0,-234549 229516,-424691 512647,-424691 283119,0 512634,190142 512634,424691z"/>
    <path class="fil6" d="M1036240 447715c0,234192 -229170,424048 -511861,424048 -282703,-12 -511873,-189856 -511873,-424048 0,-234192 229170,-424036 511873,-424036 282691,0 511861,189844 511861,424036z"/>
    <path class="fil5" d="M1035455 447715c0,233835 -228826,423394 -511076,423394 -282263,0 -511088,-189559 -511088,-423394 0,-233835 228813,-423394 511088,-423394 282250,0 511076,189559 511076,423394z"/>
    <path class="fil7" d="M1034669 447715c0,233478 -228468,422751 -510290,422751 -281834,0 -510303,-189273 -510303,-422751 0,-233478 228469,-422751 510303,-422751 281822,0 510290,189273 510290,422751z"/>
    <path class="fil8" d="M1033896 447715c0,233121 -228123,422109 -509517,422109 -281406,-12 -509529,-188988 -509529,-422109 0,-233121 228123,-422097 509529,-422097 281394,-12 509517,188976 509517,422097z"/>
    <path class="fil9" d="M1033111 447715c0,232764 -227767,421454 -508732,421454 -280978,0 -508744,-188690 -508744,-421454 0,-232764 227766,-421454 508744,-421454 280965,0 508732,188690 508732,421454z"/>
    <path class="fil8" d="M1032325 447715c0,232407 -227421,420812 -507946,420812 -280538,-12 -507959,-188405 -507959,-420812 0,-232407 227421,-420812 507959,-420812 280525,0 507946,188405 507946,420812z"/>
    <path class="fil10" d="M1031552 447715c0,232050 -227076,420157 -507173,420157 -280109,0 -507185,-188107 -507185,-420157 0,-232050 227076,-420157 507185,-420157 280097,0 507173,188107 507173,420157z"/>
    <path class="fil11" d="M1030767 447715c0,231693 -226720,419515 -506388,419515 -279681,0 -506400,-187822 -506400,-419515 0,-231693 226719,-419515 506400,-419515 279668,0 506388,187822 506388,419515z"/>
    <path class="fil12" d="M1029981 447715c0,231336 -226362,418872 -505602,418872 -279252,0 -505615,-187536 -505615,-418872 0,-231336 226363,-418860 505615,-418860 279240,-12 505602,187524 505602,418860z"/>
    <path class="fil13" d="M1029208 447715c0,230979 -226017,418218 -504829,418218 -278812,0 -504841,-187239 -504841,-418218 0,-230979 226029,-418218 504841,-418218 278812,0 504829,187239 504829,418218z"/>
    <path class="fil13" d="M1028422 447715c0,230622 -225672,417575 -504043,417575 -278384,0 -504056,-186953 -504056,-417575 0,-230622 225672,-417564 504056,-417564 278371,-11 504043,186942 504043,417564z"/>
    <path class="fil14" d="M1027637 447715c0,230265 -225315,416921 -503258,416921 -277955,0 -503271,-186656 -503271,-416921 0,-230253 225316,-416921 503271,-416921 277943,0 503258,186668 503258,416921z"/>
    <path class="fil15" d="M1026864 447715c0,229908 -224970,416278 -502485,416278 -277527,0 -502497,-186370 -502497,-416278 0,-229908 224970,-416278 502497,-416278 277515,0 502485,186382 502485,416278z"/>
    <path class="fil16" d="M1026078 447715c0,229539 -224625,415636 -501699,415636 -277087,0 -501712,-186085 -501712,-415636 0,-229539 224625,-415624 501712,-415624 277074,-12 501699,186085 501699,415624z"/>
    <path class="fil17" d="M1025293 447715c0,229194 -224268,414981 -500914,414981 -276659,0 -500927,-185787 -500927,-414981 0,-229194 224268,-414981 500927,-414981 276646,0 500914,185799 500914,414981z"/>
    <path class="fil17" d="M1024520 447715c0,228825 -223923,414339 -500141,414339 -276230,0 -500153,-185502 -500153,-414339 0,-228825 223923,-414327 500153,-414327 276218,-12 500141,185502 500141,414327z"/>
    <path class="fil18" d="M1023734 447715c0,228480 -223566,413684 -499355,413684 -275790,0 -499368,-185204 -499368,-413684 0,-228468 223578,-413685 499368,-413685 275789,0 499355,185217 499355,413685z"/>
    <path class="fil19" d="M1022176 447715c0,227766 -222876,412399 -497797,412399 -274933,-11 -497809,-184633 -497809,-412399 0,-227754 222876,-412388 497809,-412388 274921,-11 497797,184634 497797,412388z"/>
    <path class="fil19" d="M1021390 447715c0,227397 -222519,411745 -497011,411745 -274505,0 -497024,-184348 -497024,-411745 0,-227397 222519,-411745 497024,-411745 274492,0 497011,184348 497011,411745z"/>
    <path class="fil20" d="M1020605 447715c0,227040 -222174,411102 -496226,411102 -274065,0 -496238,-184062 -496238,-411102 0,-227040 222173,-411102 496238,-411102 274064,0 496226,184062 496226,411102z"/>
    <path class="fil20" d="M1019832 447715c0,226683 -221829,410448 -495453,410448 -273636,0 -495465,-183765 -495465,-410448 0,-226683 221829,-410448 495465,-410448 273624,0 495453,183765 495453,410448z"/>
    <path class="fil21" d="M1019046 447715c0,226326 -221472,409805 -494667,409805 -273208,0 -494680,-183479 -494680,-409805 0,-226327 221472,-409806 494680,-409806 273195,0 494667,183479 494667,409806z"/>
    <path class="fil22" d="M1018261 447715c0,225969 -221115,409163 -493882,409163 -272768,-12 -493894,-183194 -493894,-409163 0,-225970 221114,-409151 493894,-409151 272767,-12 493882,183181 493882,409151z"/>
    <path class="fil23" d="M1017488 447715c0,225613 -220782,408509 -493109,408509 -272339,0 -493121,-182896 -493121,-408509 0,-225613 220782,-408509 493121,-408509 272327,0 493109,182896 493109,408509z"/>
    <path class="fil23" d="M1016702 447715c0,225256 -220424,407866 -492323,407866 -271911,0 -492336,-182610 -492336,-407866 0,-225256 220425,-407866 492336,-407866 271899,0 492323,182610 492323,407866z"/>
    <path class="fil24" d="M1015917 447715c0,224899 -220068,407223 -491538,407223 -271483,-11 -491550,-182324 -491550,-407223 0,-224899 220067,-407212 491550,-407212 271470,0 491538,182313 491538,407212z"/>
    <path class="fil25" d="M1015143 447715c0,224542 -219722,406569 -490764,406569 -271054,0 -490777,-182027 -490777,-406569 0,-224542 219723,-406569 490777,-406569 271042,0 490764,182027 490764,406569z"/>
    <path class="fil26" d="M1014358 447715c0,224185 -219377,405926 -489979,405926 -270614,-11 -489992,-181741 -489992,-405926 0,-224185 219378,-405915 489992,-405915 270602,0 489979,181730 489979,405915z"/>
    <path class="fil27" d="M1013573 447715c0,223828 -219021,405272 -489194,405272 -270186,0 -489206,-181444 -489206,-405272 0,-223828 219020,-405272 489206,-405272 270173,0 489194,181444 489194,405272z"/>
    <path class="fil28" d="M1012799 447715c0,223471 -218675,404630 -488420,404630 -269757,0 -488433,-181159 -488433,-404630 0,-223471 218676,-404618 488433,-404618 269745,0 488420,181147 488420,404618z"/>
    <path class="fil27" d="M1012014 447715c0,223114 -218330,403975 -487635,403975 -269317,0 -487648,-180861 -487648,-403975 0,-223114 218319,-403975 487648,-403975 269316,0 487635,180861 487635,403975z"/>
    <path class="fil29" d="M1011229 447715c0,222757 -217974,403333 -486850,403333 -268889,0 -486862,-180576 -486862,-403333 0,-222757 217973,-403333 486862,-403333 268876,0 486850,180576 486850,403333z"/>
    <path class="fil30" d="M1010455 447715c0,222388 -217628,402690 -486076,402690 -268460,-12 -486089,-180290 -486089,-402690 0,-222400 217629,-402678 486089,-402678 268448,0 486076,180278 486076,402678z"/>
    <path class="fil30" d="M1009670 447715c0,222043 -217271,402036 -485291,402036 -268032,0 -485303,-179993 -485303,-402036 0,-222043 217271,-402036 485303,-402036 268020,0 485291,180005 485291,402036z"/>
    <path class="fil31" d="M1008885 447715c0,221674 -216927,401393 -484506,401393 -267592,0 -484518,-179707 -484518,-401393 0,-221674 216926,-401381 484518,-401381 267579,0 484506,179707 484506,401381z"/>
    <path class="fil32" d="M1008111 447715c0,221317 -216581,400739 -483732,400739 -267163,0 -483745,-179410 -483745,-400739 0,-221329 216582,-400739 483745,-400739 267151,0 483732,179422 483732,400739z"/>
    <path class="fil33" d="M1007326 447715c0,220960 -216224,400096 -482947,400096 -266735,0 -482959,-179124 -482959,-400096 0,-220960 216224,-400096 482959,-400096 266723,0 482947,179136 482947,400096z"/>
    <path class="fil34" d="M1006541 447715c0,220603 -215868,399454 -482162,399454 -266307,-12 -482174,-178839 -482174,-399454 0,-220615 215867,-399442 482174,-399442 266294,-12 482162,178839 482162,399442z"/>
    <path class="fil34" d="M1005767 447715c0,220246 -215522,398799 -481388,398799 -265866,0 -481401,-178541 -481401,-398799 0,-220246 215535,-398799 481401,-398799 265866,0 481388,178553 481388,398799z"/>
    <path class="fil35" d="M1004982 447715c0,219889 -215177,398157 -480603,398157 -265438,-12 -480615,-178256 -480615,-398157 0,-219889 215177,-398157 480615,-398157 265426,0 480603,178268 480603,398157z"/>
    <path class="fil36" d="M1004197 447715c0,219532 -214821,397502 -479818,397502 -265010,0 -479830,-177958 -479830,-397502 0,-219532 214820,-397502 479830,-397502 264997,0 479818,177970 479818,397502z"/>
    <path class="fil37" d="M1003423 447715c0,219175 -214475,396860 -479044,396860 -264581,0 -479057,-177685 -479057,-396860 0,-219175 214476,-396860 479057,-396860 264569,0 479044,177685 479044,396860z"/>
    <path class="fil38" d="M1002638 447715c0,218818 -214130,396217 -478259,396217 -264141,0 -478271,-177399 -478271,-396217 0,-218818 214130,-396205 478271,-396205 264141,-12 478259,177387 478259,396205z"/>
    <path class="fil38" d="M1001853 447715c0,218461 -213774,395563 -477474,395563 -263713,0 -477486,-177102 -477486,-395563 0,-218461 213773,-395563 477486,-395563 263700,0 477474,177102 477474,395563z"/>
    <path class="fil39" d="M1001079 447715c0,218104 -213428,394920 -476700,394920 -263284,0 -476713,-176816 -476713,-394920 0,-218104 213429,-394920 476713,-394920 263272,0 476700,176816 476700,394920z"/>
    <path class="fil40" d="M1000294 447715c0,217747 -213071,394278 -475915,394278 -262844,-12 -475927,-176531 -475927,-394278 0,-217747 213083,-394266 475927,-394266 262844,0 475915,176519 475915,394266z"/>
    <path class="fil41" d="M999520 447715c0,217390 -212738,393623 -475141,393623 -262416,0 -475142,-176233 -475142,-393623 0,-217391 212726,-393623 475142,-393623 262403,0 475129,176232 475141,393623z"/>
    <path class="fil42" d="M998735 447715c0,217034 -212381,392981 -474356,392981 -261987,0 -474368,-175947 -474368,-392981 0,-217034 212381,-392969 474368,-392969 261975,-12 474356,175935 474356,392969z"/>
    <path class="fil43" d="M997950 447715c0,216677 -212024,392326 -473571,392326 -261559,0 -473583,-175649 -473583,-392326 0,-216677 212024,-392326 473583,-392326 261547,0 473571,175649 473571,392326z"/>
    <path class="fil44" d="M997176 447715c0,216320 -211679,391684 -472797,391684 -261119,0 -472798,-175364 -472798,-391684 0,-216320 211679,-391672 472798,-391672 261118,-12 472785,175352 472797,391672z"/>
    <path class="fil45" d="M996391 447715c0,215963 -211334,391029 -472012,391029 -260690,0 -472024,-175066 -472024,-391029 0,-215963 211334,-391029 472024,-391029 260678,0 472012,175066 472012,391029z"/>
    <path class="fil46" d="M995606 447715c0,215606 -210977,390387 -471227,390387 -260262,0 -471239,-174781 -471239,-390387 0,-215606 210977,-390387 471239,-390387 260250,0 471227,174781 471227,390387z"/>
    <path class="fil46" d="M994832 447715c0,215249 -210632,389744 -470453,389744 -259822,0 -470454,-174495 -470454,-389744 0,-215249 210620,-389732 470454,-389732 259821,-12 470441,174483 470453,389732z"/>
    <path class="fil47" d="M994047 447715c0,214892 -210287,389090 -469668,389090 -259393,0 -469680,-174198 -469680,-389090 0,-214892 210287,-389090 469680,-389090 259381,0 469668,174198 469668,389090z"/>
    <path class="fil48" d="M993262 447715c0,214523 -209930,388447 -468883,388447 -258965,0 -468895,-173912 -468895,-388447 0,-214535 209930,-388435 468895,-388435 258953,-12 468883,173900 468883,388435z"/>
    <path class="fil48" d="M992476 447715c0,214178 -209573,387793 -468097,387793 -258537,0 -468110,-173615 -468110,-387793 0,-214178 209573,-387793 468110,-387793 258524,0 468097,173615 468097,387793z"/>
    <path class="fil49" d="M991703 447715c0,213809 -209228,387150 -467324,387150 -258108,0 -467336,-173329 -467336,-387150 0,-213809 209228,-387150 467336,-387150 258096,0 467324,173341 467324,387150z"/>
    <path class="fil49" d="M990918 447715c0,213464 -208883,386508 -466539,386508 -257668,-12 -466551,-173044 -466551,-386508 0,-213464 208883,-386496 466551,-386496 257656,-12 466539,173044 466539,386496z"/>
    <path class="fil50" d="M990132 447715c0,213095 -208526,385853 -465753,385853 -257240,0 -465766,-172746 -465766,-385853 0,-213095 208526,-385853 465766,-385853 257227,0 465753,172758 465753,385853z"/>
    <path class="fil51" d="M989359 447715c0,212738 -208181,385211 -464980,385211 -256811,0 -464992,-172461 -464992,-385211 0,-212750 208181,-385211 464992,-385211 256799,0 464980,172473 464980,385211z"/>
    <path class="fil52" d="M988574 447715c0,212381 -207836,384556 -464195,384556 -256383,0 -464207,-172163 -464207,-384556 0,-212381 207824,-384556 464207,-384556 256371,0 464195,172175 464195,384556z"/>
    <path class="fil52" d="M987800 447715c0,212024 -207491,383914 -463421,383914 -255943,0 -463422,-171878 -463422,-383914 0,-212024 207479,-383914 463422,-383914 255930,0 463421,171890 463421,383914z"/>
    <path class="fil53" d="M987015 447715c0,211667 -207134,383271 -462636,383271 -255514,-12 -462648,-171592 -462648,-383271 0,-211679 207134,-383259 462648,-383259 255502,-12 462636,171592 462636,383259z"/>
    <path class="fil54" d="M986229 447715c0,211310 -206776,382617 -461850,382617 -255086,0 -461863,-171295 -461863,-382617 0,-211310 206777,-382617 461863,-382617 255074,0 461850,171307 461850,382617z"/>
    <path class="fil55" d="M985456 447715c0,210953 -206444,381974 -461077,381974 -254646,0 -461078,-171021 -461078,-381974 0,-210965 206420,-381974 461078,-381974 254633,0 461065,171021 461077,381974z"/>
    <path class="fil56" d="M984671 447715c0,210596 -206087,381332 -460292,381332 -254217,-12 -460304,-170736 -460304,-381332 0,-210596 206087,-381320 460304,-381320 254205,0 460292,170724 460292,381320z"/>
    <path class="fil57" d="M983885 447715c0,210239 -205729,380677 -459506,380677 -253789,0 -459519,-170438 -459519,-380677 0,-210251 205730,-380677 459519,-380677 253777,0 459506,170438 459506,380677z"/>
    <path class="fil58" d="M983112 447715c0,209882 -205385,380035 -458733,380035 -253361,-12 -458733,-170153 -458733,-380035 0,-209882 205372,-380023 458733,-380023 253348,0 458721,170141 458733,380023z"/>
    <path class="fil59" d="M982327 447715c0,209525 -205028,379380 -457948,379380 -252920,0 -457960,-169855 -457960,-379380 0,-209525 205040,-379380 457960,-379380 252920,0 457948,169855 457948,379380z"/>
    <path class="fil60" d="M981541 447715c0,209168 -204682,378738 -457162,378738 -252492,0 -457175,-169570 -457175,-378738 0,-209168 204683,-378726 457175,-378726 252480,0 457162,169558 457162,378726z"/>
    <path class="fil61" d="M980756 447715c0,208811 -204326,378083 -456377,378083 -252064,0 -456389,-169272 -456389,-378083 0,-208812 204325,-378083 456389,-378083 252051,0 456377,169271 456377,378083z"/>
    <path class="fil62" d="M979983 447715c0,208455 -203981,377441 -455604,377441 -251624,0 -455616,-168986 -455616,-377441 0,-208455 203981,-377441 455616,-377441 251623,0 455604,168986 455604,377441z"/>
    <path class="fil63" d="M979197 447715c0,208098 -203635,376798 -454818,376798 -251195,-12 -454831,-168700 -454831,-376798 0,-208098 203636,-376786 454831,-376786 251195,-12 454818,168688 454818,376786z"/>
    <path class="fil64" d="M978412 447715c0,207741 -203279,376144 -454033,376144 -250767,0 -454045,-168403 -454045,-376144 0,-207741 203278,-376144 454045,-376144 250754,0 454033,168403 454033,376144z"/>
    <path class="fil65" d="M977639 447715c0,207384 -202934,375501 -453260,375501 -250338,0 -453272,-168117 -453272,-375501 0,-207384 202934,-375489 453272,-375489 250326,-12 453260,168105 453260,375489z"/>
    <path class="fil65" d="M976853 447715c0,207027 -202576,374847 -452474,374847 -249898,0 -452487,-167820 -452487,-374847 0,-207027 202589,-374847 452487,-374847 249898,-12 452474,167820 452474,374847z"/>
    <path class="fil66" d="M976080 447715c0,206658 -202244,374204 -451701,374204 -249470,0 -451701,-167534 -451701,-374204 0,-206670 202231,-374204 451701,-374204 249457,0 451701,167534 451701,374204z"/>
    <path class="fil67" d="M975294 447715c0,206313 -201886,373562 -450915,373562 -249041,0 -450928,-167249 -450928,-373562 0,-206313 201887,-373550 450928,-373550 249029,-12 450915,167237 450915,373550z"/>
    <path class="fil68" d="M974509 447715c0,205944 -201529,372907 -450130,372907 -248613,0 -450143,-166951 -450143,-372907 0,-205956 201530,-372907 450143,-372907 248601,0 450130,166951 450130,372907z"/>
    <path class="fil69" d="M973736 447715c0,205599 -201185,372265 -449357,372265 -248173,0 -449357,-166666 -449357,-372265 0,-205599 201184,-372265 449357,-372265 248172,0 449345,166678 449357,372265z"/>
    <path class="fil70" d="M972950 447715c0,205230 -200839,371622 -448571,371622 -247745,-12 -448584,-166380 -448584,-371622 0,-205242 200839,-371610 448584,-371610 247732,0 448571,166380 448571,371610z"/>
    <path class="fil70" d="M972165 447715c0,204873 -200482,370968 -447786,370968 -247316,0 -447799,-166083 -447799,-370968 0,-204885 200483,-370968 447799,-370968 247304,0 447786,166095 447786,370968z"/>
    <path class="fil71" d="M971392 447715c0,204516 -200138,370325 -447013,370325 -246888,0 -447025,-165797 -447025,-370325 12,-204528 200137,-370314 447025,-370314 246875,-11 447001,165798 447013,370314z"/>
    <path class="fil71" d="M970606 447715c0,204159 -199792,369671 -446227,369671 -246448,0 -446240,-165500 -446240,-369671 0,-204171 199792,-369671 446240,-369671 246447,0 446227,165512 446227,369671z"/>
    <path class="fil71" d="M969821 447715c0,203802 -199435,369028 -445442,369028 -246019,0 -445454,-165214 -445454,-369028 0,-203814 199435,-369028 445454,-369028 246007,0 445442,165226 445442,369028z"/>
    <path class="fil72" d="M969036 447715c0,203445 -199079,368386 -444657,368386 -245591,-12 -444669,-164929 -444669,-368386 0,-203445 199078,-368374 444669,-368374 245578,0 444657,164929 444657,368374z"/>
    <path class="fil73" d="M968262 447715c0,203088 -198733,367731 -443883,367731 -245162,0 -443896,-164631 -443896,-367731 0,-203100 198734,-367731 443896,-367731 245150,0 443883,164643 443883,367731z"/>
    <path class="fil74" d="M967477 447715c0,202731 -198388,367089 -443098,367089 -244722,0 -443110,-164358 -443110,-367089 0,-202731 198388,-367077 443110,-367077 244710,-12 443098,164346 443098,367077z"/>
    <path class="fil75" d="M966704 447715c0,202374 -198044,366434 -442325,366434 -244294,0 -442325,-164060 -442325,-366434 0,-202386 198031,-366435 442325,-366435 244281,0 442325,164061 442325,366435z"/>
    <path class="fil76" d="M965918 447715c0,202017 -197686,365792 -441539,365792 -243866,0 -441552,-163775 -441552,-365792 0,-202017 197686,-365780 441552,-365780 243853,-12 441539,163763 441539,365780z"/>
    <path class="fil76" d="M965133 447715c0,201660 -197329,365138 -440754,365138 -243437,0 -440766,-163478 -440766,-365138 0,-201660 197329,-365138 440766,-365138 243425,0 440754,163478 440754,365138z"/>
    <path class="fil76" d="M964360 447715c0,201303 -196996,364495 -439981,364495 -242997,0 -439981,-163192 -439981,-364495 0,-201303 196984,-364495 439981,-364495 242985,0 439981,163192 439981,364495z"/>
    <path class="fil77" d="M963574 447715c0,200946 -196639,363852 -439195,363852 -242569,0 -439208,-162906 -439208,-363852 0,-200946 196639,-363841 439208,-363841 242556,0 439195,162895 439195,363841z"/>
    <path class="fil78" d="M962789 447715c0,200589 -196282,363198 -438410,363198 -242140,0 -438422,-162609 -438422,-363198 0,-200589 196282,-363198 438422,-363198 242128,0 438410,162609 438410,363198z"/>
    <path class="fil79" d="M962015 447715c0,200232 -195948,362555 -437636,362555 -241712,0 -437637,-162323 -437637,-362555 0,-200233 195925,-362556 437637,-362556 241688,0 437636,162323 437636,362556z"/>
    <path class="fil80" d="M961230 447715c0,199875 -195592,361901 -436851,361901 -241272,0 -436864,-162026 -436864,-361901 0,-199876 195592,-361901 436864,-361901 241259,0 436851,162025 436851,361901z"/>
    <path class="fil80" d="M960445 447715c0,199519 -195235,361259 -436066,361259 -240843,0 -436078,-161740 -436078,-361259 0,-199519 195235,-361259 436078,-361259 240831,0 436066,161740 436066,361259z"/>
    <path class="fil81" d="M959671 447715c0,199162 -194890,360616 -435292,360616 -240415,-12 -435305,-161454 -435305,-360616 12,-199162 194890,-360604 435305,-360604 240402,0 435281,161442 435292,360604z"/>
    <path class="fil82" d="M958886 447715c0,198805 -194533,359962 -434507,359962 -239975,0 -434519,-161157 -434519,-359962 0,-198805 194544,-359962 434519,-359962 239974,0 434507,161157 434507,359962z"/>
    <path class="fil82" d="M958101 447715c0,198448 -194188,359319 -433722,359319 -239546,-12 -433734,-160871 -433734,-359319 0,-198448 194188,-359319 433734,-359319 239534,0 433722,160871 433722,359319z"/>
    <path class="fil83" d="M957327 447715c0,198079 -193842,358676 -432948,358676 -239118,-11 -432961,-160585 -432961,-358676 12,-198091 193843,-358665 432961,-358665 239106,0 432936,160574 432948,358665z"/>
    <path class="fil83" d="M956542 447715c0,197734 -193486,358022 -432163,358022 -238690,0 -432175,-160288 -432175,-358022 0,-197734 193485,-358022 432175,-358022 238677,0 432163,160288 432163,358022z"/>
    <path class="fil84" d="M955757 447715c0,197377 -193141,357380 -431378,357380 -238249,-12 -431390,-160003 -431390,-357380 0,-197377 193141,-357368 431390,-357368 238237,0 431378,160003 431378,357368z"/>
    <path class="fil85" d="M954983 447715c0,197020 -192795,356725 -430604,356725 -237821,0 -430605,-159705 -430605,-356725 0,-197020 192784,-356725 430605,-356725 237809,0 430604,159717 430604,356725z"/>
    <path class="fil86" d="M954198 447715c0,196663 -192439,356083 -429819,356083 -237393,-12 -429831,-159420 -429831,-356083 0,-196663 192438,-356083 429831,-356083 237380,0 429819,159432 429819,356083z"/>
    <path class="fil86" d="M953413 447715c0,196294 -192082,355440 -429034,355440 -236952,-12 -429046,-159134 -429046,-355440 0,-196294 192082,-355428 429046,-355428 236952,0 429034,159134 429034,355428z"/>
    <path class="fil87" d="M952639 447715c0,195949 -191748,354786 -428260,354786 -236524,0 -428261,-158837 -428261,-354786 0,-195949 191737,-354786 428261,-354786 236512,0 428260,158849 428260,354786z"/>
    <path class="fil88" d="M951854 447715c0,195580 -191392,354143 -427475,354143 -236096,-12 -427487,-158551 -427487,-354143 0,-195580 191391,-354131 427487,-354131 236083,-12 427475,158551 427475,354131z"/>
    <path class="fil89" d="M951069 447715c0,195235 -191035,353489 -426690,353489 -235667,0 -426702,-158254 -426702,-353489 0,-195223 191035,-353489 426702,-353489 235655,0 426690,158266 426690,353489z"/>
    <path class="fil90" d="M950295 447715c0,194866 -190689,352846 -425916,352846 -235227,-12 -425917,-157968 -425917,-352846 0,-194866 190690,-352834 425917,-352834 235227,-12 425916,157968 425916,352834z"/>
    <path class="fil90" d="M949510 447715c0,194509 -190345,352192 -425131,352192 -234799,0 -425143,-157683 -425143,-352192 0,-194509 190344,-352192 425143,-352192 234786,-12 425131,157683 425131,352192z"/>
    <path class="fil91" d="M948725 447715c0,194152 -189988,351549 -424346,351549 -234370,0 -424358,-157397 -424358,-351549 0,-194152 189988,-351549 424358,-351549 234358,0 424346,157397 424346,351549z"/>
    <path class="fil92" d="M947951 447715c0,193795 -189642,350907 -423572,350907 -233942,0 -423585,-157112 -423585,-350907 0,-193795 189643,-350895 423585,-350895 233930,-12 423560,157100 423572,350895z"/>
    <path class="fil92" d="M947166 447715c0,193438 -189298,350252 -422787,350252 -233502,0 -422799,-156814 -422799,-350252 0,-193438 189297,-350252 422799,-350252 233501,0 422787,156814 422787,350252z"/>
    <path class="fil93" d="M946380 447715c0,193081 -188940,349610 -422001,349610 -233073,0 -422014,-156529 -422014,-349610 0,-193081 188941,-349610 422014,-349610 233061,0 422001,156529 422001,349610z"/>
    <path class="fil94" d="M945607 447715c0,192724 -188595,348955 -421228,348955 -232645,0 -421240,-156231 -421240,-348955 0,-192724 188595,-348955 421240,-348955 232633,-12 421216,156231 421228,348955z"/>
    <path class="fil94" d="M944822 447715c0,192367 -188239,348313 -420443,348313 -232217,0 -420455,-155946 -420455,-348313 0,-192367 188238,-348313 420455,-348313 232204,0 420443,155946 420443,348313z"/>
    <path class="fil95" d="M944036 447715c0,192010 -187893,347670 -419657,347670 -231776,0 -419670,-155660 -419670,-347670 0,-192010 187894,-347658 419670,-347658 231764,-12 419657,155648 419657,347658z"/>
    <path class="fil95" d="M943263 447715c0,191653 -187548,347016 -418884,347016 -231348,0 -418885,-155363 -418885,-347016 0,-191653 187537,-347016 418885,-347016 231336,0 418884,155363 418884,347016z"/>
    <path class="fil95" d="M942478 447715c0,191296 -187192,346373 -418099,346373 -230920,0 -418111,-155077 -418111,-346373 0,-191297 187191,-346373 418111,-346373 230907,0 418099,155076 418099,346373z"/>
    <path class="fil96" d="M941692 447715c0,190940 -186834,345731 -417313,345731 -230491,-12 -417326,-154791 -417326,-345731 0,-190940 186835,-345719 417326,-345719 230479,0 417313,154779 417313,345719z"/>
    <path class="fil97" d="M940919 447715c0,190583 -186501,345076 -416540,345076 -230051,0 -416540,-154493 -416540,-345076 0,-190583 186489,-345076 416540,-345076 230039,0 416540,154493 416540,345076z"/>
    <path class="fil98" d="M940134 447715c0,190226 -186145,344434 -415755,344434 -229623,0 -415767,-154208 -415767,-344434 0,-190226 186144,-344422 415767,-344422 229610,-12 415755,154196 415755,344422z"/>
    <path class="fil99" d="M939348 447715c0,189869 -185787,343779 -414969,343779 -229194,0 -414982,-153910 -414982,-343779 0,-189869 185788,-343779 414982,-343779 229182,0 414969,153910 414969,343779z"/>
    <path class="fil99" d="M938575 447715c0,189512 -185454,343137 -414196,343137 -228754,0 -414196,-153625 -414196,-343137 0,-189512 185430,-343137 414196,-343137 228742,0 414196,153625 414196,343137z"/>
    <path class="fil99" d="M937790 447715c0,189155 -185098,342494 -413411,342494 -228326,-12 -413423,-153339 -413423,-342494 0,-189143 185097,-342482 413423,-342482 228313,0 413411,153339 413411,342482z"/>
    <path class="fil100" d="M937004 447715c0,188798 -184740,341840 -412625,341840 -227897,0 -412638,-153042 -412638,-341840 0,-188798 184741,-341840 412638,-341840 227885,0 412625,153054 412625,341840z"/>
    <path class="fil101" d="M936231 447715c0,188429 -184395,341197 -411852,341197 -227469,0 -411864,-152756 -411864,-341197 0,-188429 184395,-341185 411864,-341185 227457,0 411840,152756 411852,341185z"/>
    <path class="fil102" d="M935446 447715c0,188084 -184039,340543 -411067,340543 -227029,0 -411079,-152459 -411079,-340543 0,-188084 184050,-340543 411079,-340543 227028,0 411067,152471 411067,340543z"/>
    <path class="fil102" d="M934660 447715c0,187715 -183693,339900 -410281,339900 -226600,0 -410294,-152173 -410294,-339900 0,-187715 183694,-339888 410294,-339888 226588,-12 410281,152173 410281,339888z"/>
    <path class="fil103" d="M933887 447715c0,187370 -183348,339246 -409508,339246 -226172,0 -409520,-151876 -409520,-339246 0,-187358 183348,-339246 409520,-339246 226160,0 409496,151888 409508,339246z"/>
    <path class="fil104" d="M933101 447715c0,187001 -182991,338603 -408722,338603 -225744,0 -408735,-151590 -408735,-338603 0,-187001 182991,-338603 408735,-338603 225731,0 408722,151602 408722,338603z"/>
    <path class="fil105" d="M932316 447715c0,186656 -182634,337961 -407937,337961 -225303,0 -407950,-151305 -407950,-337961 0,-186644 182647,-337949 407950,-337949 225303,0 407937,151305 407937,337949z"/>
    <path class="fil106" d="M931543 447715c0,186287 -182301,337306 -407164,337306 -224875,0 -407164,-151019 -407164,-337306 0,-186287 182289,-337306 407164,-337306 224863,0 407164,151019 407164,337306z"/>
    <path class="fil107" d="M930757 447715c0,185930 -181944,336664 -406378,336664 -224447,0 -406391,-150734 -406391,-336664 0,-185930 181944,-336664 406391,-336664 224434,0 406378,150734 406378,336664z"/>
    <path class="fil107" d="M929972 447715c0,185573 -181587,336009 -405593,336009 -224018,0 -405605,-150436 -405605,-336009 0,-185573 181587,-336009 405605,-336009 224006,0 405593,150436 405593,336009z"/>
    <path class="fil108" d="M929199 447715c0,185216 -181254,335367 -404820,335367 -223578,0 -404820,-150151 -404820,-335367 0,-185216 181242,-335367 404820,-335367 223566,0 404820,150151 404820,335367z"/>
    <path class="fil109" d="M928413 447715c0,184859 -180897,334724 -404034,334724 -223150,-12 -404047,-149865 -404047,-334724 0,-184859 180897,-334712 404047,-334712 223137,0 404034,149853 404034,334712z"/>
    <path class="fil110" d="M927628 447715c0,184502 -180540,334070 -403249,334070 -222721,0 -403261,-149568 -403261,-334070 0,-184502 180540,-334070 403261,-334070 222709,0 403249,149568 403249,334070z"/>
    <path class="fil111" d="M926855 447715c0,184145 -180195,333427 -402476,333427 -222281,-12 -402476,-149282 -402476,-333427 0,-184145 180195,-333427 402476,-333427 222281,0 402476,149282 402476,333427z"/>
    <path class="fil112" d="M926069 447715c0,183788 -179850,332785 -401690,332785 -221853,-12 -401703,-148997 -401703,-332785 0,-183788 179850,-332773 401703,-332773 221840,0 401690,148985 401690,332773z"/>
    <path class="fil112" d="M925284 447715c0,183431 -179493,332130 -400905,332130 -221424,0 -400917,-148699 -400917,-332130 0,-183431 179493,-332130 400917,-332130 221412,0 400905,148699 400905,332130z"/>
    <path class="fil113" d="M924511 447715c0,183074 -179148,331488 -400132,331488 -220996,-12 -400144,-148414 -400144,-331488 0,-183074 179148,-331488 400144,-331488 220984,0 400132,148414 400132,331488z"/>
    <path class="fil113" d="M923725 447715c0,182717 -178803,330833 -399346,330833 -220556,0 -399359,-148116 -399359,-330833 0,-182718 178803,-330833 399359,-330833 220555,0 399346,148115 399346,330833z"/>
    <path class="fil113" d="M922940 447715c0,182361 -178446,330191 -398561,330191 -220127,-12 -398573,-147830 -398573,-330191 0,-182361 178446,-330191 398573,-330191 220115,0 398561,147830 398561,330191z"/>
    <path class="fil114" d="M922166 447715c0,182004 -178100,329548 -397787,329548 -219699,0 -397800,-147544 -397800,-329548 0,-182004 178101,-329536 397800,-329536 219687,-12 397776,147532 397787,329536z"/>
    <path class="fil114" d="M921381 447715c0,181647 -177744,328894 -397002,328894 -219271,0 -397015,-147247 -397015,-328894 0,-181647 177744,-328894 397015,-328894 219258,0 397002,147247 397002,328894z"/>
    <path class="fil115" d="M920596 447715c0,181290 -177399,328251 -396217,328251 -218831,0 -396229,-146961 -396229,-328251 0,-181290 177398,-328239 396229,-328239 218818,-12 396217,146949 396217,328239z"/>
    <path class="fil116" d="M919822 447715c0,180933 -177053,327597 -395443,327597 -218402,0 -395456,-146664 -395456,-327597 0,-180933 177054,-327597 395456,-327597 218390,0 395443,146676 395443,327597z"/>
    <path class="fil117" d="M919037 447715c0,180576 -176697,326954 -394658,326954 -217974,0 -394671,-146378 -394671,-326954 0,-180564 176697,-326942 394671,-326942 217961,-12 394658,146378 394658,326942z"/>
    <path class="fil118" d="M918252 447715c0,180219 -176340,326300 -393873,326300 -217545,0 -393885,-146081 -393885,-326300 0,-180219 176340,-326300 393885,-326300 217533,-12 393873,146093 393873,326300z"/>
    <path class="fil118" d="M917478 447715c0,179850 -176006,325657 -393099,325657 -217105,0 -393100,-145795 -393100,-325657 0,-179850 175995,-325657 393100,-325657 217093,0 393099,145807 393099,325657z"/>
    <path class="fil119" d="M916693 447715c0,179505 -175650,325015 -392314,325015 -216677,0 -392326,-145510 -392326,-325015 0,-179505 175649,-325003 392326,-325003 216664,-12 392314,145510 392314,325003z"/>
    <path class="fil119" d="M915908 447715c0,179136 -175293,324360 -391529,324360 -216248,0 -391541,-145212 -391541,-324360 0,-179136 175293,-324360 391541,-324360 216236,0 391529,145224 391529,324360z"/>
    <path class="fil120" d="M915134 447715c0,178791 -174959,323718 -390755,323718 -215808,0 -390756,-144927 -390756,-323718 0,-178779 174936,-323718 390756,-323718 215808,0 390755,144939 390755,323718z"/>
    <path class="fil121" d="M914349 447715c0,178422 -174603,323075 -389970,323075 -215380,-12 -389982,-144641 -389982,-323075 0,-178422 174602,-323063 389982,-323063 215367,-12 389970,144641 389970,323063z"/>
    <path class="fil122" d="M913564 447715c0,178065 -174246,322421 -389185,322421 -214952,0 -389197,-144356 -389197,-322421 0,-178065 174245,-322421 389197,-322421 214939,0 389185,144356 389185,322421z"/>
    <path class="fil123" d="M912790 447715c0,177708 -173900,321778 -388411,321778 -214523,0 -388424,-144070 -388424,-321778 0,-177708 173901,-321767 388424,-321767 214511,-11 388411,144059 388411,321767z"/>
    <path class="fil123" d="M912005 447715c0,177351 -173544,321124 -387626,321124 -214083,0 -387638,-143773 -387638,-321124 0,-177351 173555,-321124 387638,-321124 214082,0 387626,143773 387626,321124z"/>
    <path class="fil124" d="M911220 447715c0,176994 -173199,320481 -386841,320481 -213655,0 -386853,-143487 -386853,-320481 0,-176994 173198,-320481 386853,-320481 213642,0 386841,143487 386841,320481z"/>
    <path class="fil124" d="M910446 447715c0,176637 -172853,319839 -386067,319839 -213226,-12 -386080,-143202 -386080,-319839 0,-176637 172854,-319827 386080,-319827 213214,0 386055,143190 386067,319827z"/>
    <path class="fil125" d="M909661 447715c0,176280 -172497,319184 -385282,319184 -212798,0 -385294,-142904 -385294,-319184 0,-176280 172496,-319184 385294,-319184 212785,0 385282,142904 385282,319184z"/>
    <path class="fil125" d="M908876 447715c0,175923 -172140,318542 -384497,318542 -212358,0 -384509,-142619 -384509,-318542 0,-175923 172151,-318530 384509,-318530 212357,-12 384497,142607 384497,318530z"/>
    <path class="fil126" d="M908102 447715c0,175566 -171806,317887 -383723,317887 -211929,0 -383736,-142321 -383736,-317887 0,-175566 171807,-317888 383736,-317888 211917,0 383723,142322 383723,317888z"/>
    <path class="fil127" d="M907317 447715c0,175209 -171450,317245 -382938,317245 -211501,0 -382950,-142036 -382950,-317245 0,-175209 171449,-317245 382950,-317245 211488,0 382938,142036 382938,317245z"/>
    <path class="fil128" d="M906532 447715c0,174852 -171093,316602 -382153,316602 -211073,-11 -382165,-141750 -382165,-316602 0,-174852 171092,-316591 382165,-316591 211060,0 382153,141739 382153,316591z"/>
    <path class="fil128" d="M905758 447715c0,174495 -170759,315948 -381379,315948 -210632,0 -381380,-141453 -381380,-315948 0,-174495 170748,-315948 381380,-315948 210632,0 381379,141453 381379,315948z"/>
    <path class="fil129" d="M904973 447715c0,174138 -170402,315305 -380594,315305 -210204,0 -380606,-141167 -380606,-315305 0,-174139 170402,-315294 380606,-315294 210192,0 380594,141155 380594,315294z"/>
    <path class="fil130" d="M904187 447715c0,173781 -170045,314651 -379808,314651 -209776,0 -379821,-140870 -379821,-314651 0,-173782 170045,-314651 379821,-314651 209763,0 379808,140869 379808,314651z"/>
    <path class="fil131" d="M903414 447715c0,173413 -169700,314008 -379035,314008 -209335,0 -379036,-140583 -379036,-314008 0,-173425 169701,-314009 379036,-314009 209335,0 379035,140584 379035,314009z"/>
    <path class="fil131" d="M902629 447715c0,173068 -169355,313354 -378250,313354 -208907,0 -378262,-140286 -378262,-313354 0,-173068 169355,-313354 378262,-313354 208895,0 378250,140286 378250,313354z"/>
    <path class="fil132" d="M901843 447715c0,172699 -168998,312712 -377464,312712 -208479,0 -377477,-140001 -377477,-312712 0,-172699 168998,-312712 377477,-312712 208466,0 377464,140013 377464,312712z"/>
    <path class="fil133" d="M901070 447715c0,172354 -168653,312069 -376691,312069 -208050,0 -376703,-139715 -376703,-312069 0,-172354 168653,-312057 376703,-312057 208038,0 376691,139715 376691,312057z"/>
    <path class="fil134" d="M900285 447715c0,171985 -168297,311415 -375906,311415 -207610,0 -375918,-139418 -375918,-311415 0,-171985 168308,-311415 375918,-311415 207609,0 375906,139430 375906,311415z"/>
    <path class="fil135" d="M899499 447715c0,171628 -167951,310772 -375120,310772 -207182,0 -375133,-139132 -375133,-310772 0,-171640 167951,-310772 375133,-310772 207169,0 375120,139144 375120,310772z"/>
    <path class="fil136" d="M898726 447715c0,171271 -167606,310129 -374347,310129 -206753,-11 -374359,-138846 -374359,-310129 0,-171271 167606,-310118 374359,-310118 206741,0 374347,138847 374347,310118z"/>
    <path class="fil137" d="M897941 447715c0,170914 -167249,309475 -373562,309475 -206325,0 -373574,-138549 -373574,-309475 0,-170926 167249,-309475 373574,-309475 206313,0 373562,138561 373562,309475z"/>
    <path class="fil138" d="M897155 447715c0,170557 -166904,308833 -372776,308833 -205885,-12 -372789,-138264 -372789,-308833 0,-170557 166892,-308821 372789,-308821 205872,-12 372776,138264 372776,308821z"/>
    <path class="fil138" d="M896382 447715c0,170200 -166559,308178 -372003,308178 -205456,0 -372015,-137966 -372015,-308178 0,-170200 166559,-308178 372015,-308178 205444,0 372003,137978 372003,308178z"/>
    <path class="fil139" d="M895597 447715c0,169843 -166202,307536 -371218,307536 -205028,-12 -371230,-137693 -371230,-307536 0,-169843 166202,-307536 371230,-307536 205016,0 371218,137693 371218,307536z"/>
    <path class="fil140" d="M894811 447715c0,169486 -165845,306893 -370432,306893 -204600,0 -370445,-137407 -370445,-306893 0,-169486 165845,-306881 370445,-306881 204587,-12 370432,137395 370432,306881z"/>
    <path class="fil141" d="M894038 447715c0,169129 -165512,306239 -369659,306239 -204159,0 -369671,-137110 -369671,-306239 12,-169129 165512,-306239 369671,-306239 204147,0 369659,137110 369659,306239z"/>
    <path class="fil142" d="M893252 447715c0,168772 -165154,305596 -368873,305596 -203731,0 -368886,-136824 -368886,-305596 0,-168772 165155,-305596 368886,-305596 203719,0 368873,136824 368873,305596z"/>
    <path class="fil143" d="M892467 447715c0,168415 -164798,304942 -368088,304942 -203303,0 -368101,-136527 -368101,-304942 0,-168415 164798,-304942 368101,-304942 203290,0 368088,136527 368088,304942z"/>
    <path class="fil144" d="M891694 447715c0,168058 -164453,304299 -367315,304299 -202874,0 -367315,-136241 -367315,-304299 0,-168058 164441,-304299 367315,-304299 202862,0 367315,136241 367315,304299z"/>
    <path class="fil145" d="M890908 447715c0,167701 -164107,303657 -366529,303657 -202434,0 -366542,-135956 -366542,-303657 0,-167701 164108,-303645 366542,-303645 202422,-12 366529,135944 366529,303645z"/>
    <path class="fil146" d="M890123 447715c0,167344 -163751,303002 -365744,303002 -202006,0 -365757,-135658 -365757,-303002 0,-167344 163751,-303002 365757,-303002 201993,0 365744,135658 365744,303002z"/>
    <path class="fil146" d="M889350 447715c0,166987 -163406,302360 -364971,302360 -201577,0 -364983,-135373 -364983,-302360 0,-166987 163406,-302348 364983,-302348 201565,-12 364971,135361 364971,302348z"/>
    <path class="fil147" d="M888564 447715c0,166630 -163048,301705 -364185,301705 -201137,0 -364198,-135075 -364198,-301705 0,-166630 163049,-301705 364198,-301705 201137,0 364185,135075 364185,301705z"/>
    <path class="fil147" d="M887779 447715c0,166273 -162704,301063 -363400,301063 -200709,0 -363412,-134790 -363412,-301063 0,-166273 162703,-301063 363412,-301063 200696,0 363400,134790 363400,301063z"/>
    <path class="fil148" d="M887006 447715c0,165916 -162359,300408 -362627,300408 -200280,0 -362639,-134492 -362639,-300408 0,-165916 162359,-300408 362639,-300408 200268,-12 362627,134492 362627,300408z"/>
    <path class="fil149" d="M886220 447715c0,165548 -162001,299766 -361841,299766 -199852,0 -361854,-134207 -361854,-299766 0,-165559 162002,-299766 361854,-299766 199840,0 361841,134207 361841,299766z"/>
    <path class="fil150" d="M885435 447715c0,165202 -161645,299123 -361056,299123 -199412,0 -361068,-133921 -361068,-299123 0,-165203 161656,-299111 361068,-299111 199411,-12 361056,133908 361056,299111z"/>
    <path class="fil151" d="M884662 447715c0,164834 -161312,298469 -360283,298469 -198983,0 -360295,-133623 -360295,-298469 0,-164846 161312,-298469 360295,-298469 198971,0 360283,133623 360283,298469z"/>
    <path class="fil152" d="M883876 447715c0,164489 -160954,297826 -359497,297826 -198555,0 -359510,-133337 -359510,-297826 0,-164489 160955,-297826 359510,-297826 198543,0 359497,133349 359497,297826z"/>
    <path class="fil153" d="M883091 447715c0,164120 -160598,297184 -358712,297184 -198115,-12 -358724,-133052 -358724,-297184 0,-164120 160597,-297172 358724,-297172 198114,-12 358712,133052 358712,297172z"/>
    <path class="fil154" d="M882318 447715c0,163775 -160265,296529 -357939,296529 -197686,0 -357951,-132754 -357951,-296529 12,-163775 160265,-296529 357951,-296529 197686,0 357939,132766 357939,296529z"/>
    <path class="fil155" d="M881532 447715c0,163406 -159907,295887 -357153,295887 -197258,0 -357166,-132469 -357166,-295887 0,-163406 159908,-295875 357166,-295875 197246,-12 357153,132469 357153,295875z"/>
    <path class="fil155" d="M880747 447715c0,163049 -159551,295232 -356368,295232 -196830,0 -356380,-132171 -356380,-295232 0,-163061 159550,-295232 356380,-295232 196817,0 356368,132183 356368,295232z"/>
    <path class="fil156" d="M879973 447715c0,162692 -159205,294590 -355594,294590 -196389,0 -355607,-131886 -355607,-294590 0,-162692 159206,-294590 355607,-294590 196389,0 355594,131898 355594,294590z"/>
    <path class="fil157" d="M879188 447715c0,162335 -158860,293947 -354809,293947 -195961,-12 -354822,-131600 -354822,-293947 0,-162335 158861,-293935 354822,-293935 195949,0 354809,131600 354809,293935z"/>
    <path class="fil158" d="M878403 447715c0,161978 -158504,293293 -354024,293293 -195533,0 -354036,-131303 -354036,-293293 0,-161978 158503,-293293 354036,-293293 195520,0 354024,131315 354024,293293z"/>
    <path class="fil159" d="M877629 447715c0,161621 -158158,292650 -353250,292650 -195104,0 -353263,-131029 -353263,-292650 0,-161621 158159,-292650 353263,-292650 195092,0 353250,131029 353250,292650z"/>
    <path class="fil159" d="M876844 447715c0,161264 -157801,291996 -352465,291996 -194664,0 -352477,-130732 -352477,-291996 0,-161264 157813,-291996 352477,-291996 194664,0 352465,130732 352465,291996z"/>
    <path class="fil160" d="M876059 447715c0,160907 -157457,291353 -351680,291353 -194236,0 -351692,-130446 -351692,-291353 0,-160907 157456,-291353 351692,-291353 194223,0 351680,130446 351680,291353z"/>
    <path class="fil161" d="M875285 447715c0,160550 -157111,290711 -350906,290711 -193807,-12 -350919,-130161 -350919,-290711 0,-160550 157112,-290699 350919,-290699 193795,0 350906,130149 350906,290699z"/>
    <path class="fil162" d="M874500 447715c0,160193 -156754,290056 -350121,290056 -193379,0 -350133,-129863 -350133,-290056 0,-160193 156754,-290056 350133,-290056 193367,0 350121,129863 350121,290056z"/>
    <path class="fil163" d="M873715 447715c0,159836 -156410,289414 -349336,289414 -192939,0 -349348,-129578 -349348,-289414 0,-159836 156397,-289402 349348,-289402 192938,0 349336,129566 349336,289402z"/>
    <path class="fil164" d="M872941 447715c0,159479 -156064,288759 -348562,288759 -192510,0 -348575,-129280 -348575,-288759 0,-159479 156065,-288759 348575,-288759 192498,0 348562,129280 348562,288759z"/>
    <path class="fil165" d="M872156 447715c0,159122 -155707,288117 -347777,288117 -192082,0 -347789,-128995 -347789,-288117 0,-159122 155707,-288117 347789,-288117 192070,0 347777,128995 347777,288117z"/>
    <path class="fil166" d="M871371 447715c0,158765 -155351,287462 -346992,287462 -191654,0 -347004,-128697 -347004,-287462 0,-158765 155350,-287462 347004,-287462 191641,0 346992,128697 346992,287462z"/>
    <path class="fil167" d="M870597 447715c0,158408 -155017,286820 -346218,286820 -191213,0 -346231,-128412 -346231,-286820 12,-158408 155018,-286820 346231,-286820 191201,0 346218,128412 346218,286820z"/>
    <path class="fil168" d="M869812 447715c0,158051 -154660,286177 -345433,286177 -190785,-12 -345445,-128126 -345445,-286177 0,-158051 154660,-286165 345445,-286165 190773,-12 345433,128114 345433,286165z"/>
    <path class="fil169" d="M869027 447715c0,157694 -154304,285523 -344648,285523 -190357,0 -344660,-127829 -344660,-285523 0,-157694 154303,-285523 344660,-285523 190344,-12 344648,127829 344648,285523z"/>
    <path class="fil170" d="M868253 447715c0,157337 -153958,284880 -343874,284880 -189928,0 -343887,-127543 -343887,-284880 0,-157337 153959,-284880 343887,-284880 189916,0 343874,127543 343874,284880z"/>
    <path class="fil171" d="M867468 447715c0,156969 -153613,284238 -343089,284238 -189488,0 -343101,-127258 -343101,-284238 0,-156980 153613,-284226 343101,-284226 189476,-12 343089,127246 343089,284226z"/>
    <path class="fil172" d="M866694 447715c0,156623 -153268,283583 -342315,283583 -189060,0 -342316,-126960 -342316,-283583 0,-156624 153256,-283583 342316,-283583 189047,0 342304,126959 342315,283583z"/>
    <path class="fil173" d="M865909 447715c0,156255 -152911,282941 -341530,282941 -188631,0 -341543,-126674 -341543,-282941 0,-156255 152912,-282941 341543,-282941 188619,0 341530,126686 341530,282941z"/>
    <path class="fil174" d="M865124 447715c0,155910 -152554,282286 -340745,282286 -188203,0 -340757,-126376 -340757,-282286 0,-155910 152554,-282286 340757,-282286 188191,0 340745,126388 340745,282286z"/>
    <path class="fil175" d="M864338 447715c0,155541 -152209,281644 -339959,281644 -187763,0 -339972,-126091 -339972,-281644 0,-155541 152209,-281644 339972,-281644 187762,0 339959,126103 339959,281644z"/>
    <path class="fil176" d="M863565 447715c0,155184 -151864,281001 -339186,281001 -187334,0 -339198,-125805 -339198,-281001 0,-155196 151864,-280989 339198,-280989 187322,0 339186,125805 339186,280989z"/>
    <path class="fil177" d="M862780 447715c0,154827 -151507,280347 -338401,280347 -186906,0 -338413,-125508 -338413,-280347 0,-154827 151507,-280347 338413,-280347 186894,0 338401,125520 338401,280347z"/>
    <path class="fil178" d="M861994 447715c0,154470 -151150,279704 -337615,279704 -186466,0 -337628,-125234 -337628,-279704 0,-154482 151162,-279704 337628,-279704 186465,0 337615,125234 337615,279704z"/>
    <path class="fil179" d="M861221 447715c0,154113 -150817,279050 -336842,279050 -186038,0 -336854,-124925 -336854,-279050 0,-154125 150816,-279050 336854,-279050 186025,0 336842,124937 336842,279050z"/>
    <path class="fil180" d="M860436 447715c0,153756 -150460,278407 -336057,278407 -185609,0 -336069,-124639 -336069,-278407 0,-153756 150460,-278407 336069,-278407 185597,0 336057,124651 336057,278407z"/>
    <path class="fil180" d="M859650 447715c0,153399 -150103,277765 -335271,277765 -185181,0 -335284,-124366 -335284,-277765 0,-153411 150103,-277753 335284,-277753 185168,0 335271,124354 335271,277753z"/>
    <path class="fil181" d="M858877 447715c0,153042 -149758,277110 -334498,277110 -184741,0 -334510,-124068 -334510,-277110 12,-153042 149769,-277110 334510,-277110 184740,0 334498,124068 334498,277110z"/>
    <path class="fil182" d="M858092 447715c0,152685 -149413,276468 -333713,276468 -184312,0 -333725,-123783 -333725,-276468 0,-152697 149413,-276456 333725,-276456 184300,-12 333713,123771 333713,276456z"/>
    <path class="fil182" d="M857306 447715c0,152328 -149056,275813 -332927,275813 -183884,0 -332940,-123485 -332940,-275813 0,-152328 149056,-275813 332940,-275813 183871,0 332927,123485 332927,275813z"/>
    <path class="fil183" d="M856533 447715c0,151971 -148711,275171 -332154,275171 -183444,0 -332166,-123200 -332166,-275171 0,-151971 148711,-275171 332166,-275171 183443,0 332154,123200 332154,275171z"/>
    <path class="fil184" d="M855748 447715c0,151614 -148366,274528 -331369,274528 -183015,-12 -331381,-122914 -331381,-274528 0,-151614 148366,-274517 331381,-274517 183003,0 331369,122903 331369,274517z"/>
    <path class="fil185" d="M854974 447715c0,151257 -148021,273874 -330595,273874 -182587,0 -330596,-122617 -330596,-273874 0,-151257 148009,-273874 330596,-273874 182574,0 330583,122617 330595,273874z"/>
    <path class="fil186" d="M854189 447715c0,150900 -147664,273231 -329810,273231 -182159,0 -329822,-122331 -329822,-273231 0,-150900 147663,-273220 329822,-273220 182146,-11 329810,122320 329810,273220z"/>
    <path class="fil187" d="M853404 447715c0,150543 -147307,272577 -329025,272577 -181718,0 -329037,-122034 -329037,-272577 0,-150543 147319,-272577 329037,-272577 181718,0 329025,122034 329025,272577z"/>
    <path class="fil188" d="M852630 447715c0,150186 -146974,271934 -328251,271934 -181290,0 -328252,-121748 -328252,-271934 0,-150186 146962,-271934 328252,-271934 181277,0 328239,121748 328251,271934z"/>
    <path class="fil189" d="M851845 447715c0,149829 -146617,271292 -327466,271292 -180862,-12 -327478,-121463 -327478,-271292 0,-149829 146616,-271280 327478,-271280 180849,0 327466,121451 327466,271280z"/>
    <path class="fil190" d="M851059 447715c0,149472 -146259,270637 -326680,270637 -180433,0 -326693,-121165 -326693,-270637 0,-149472 146260,-270638 326693,-270638 180421,0 326680,121166 326680,270638z"/>
    <path class="fil191" d="M850274 447715c0,149103 -145914,269995 -325895,269995 -180005,-12 -325908,-120880 -325908,-269995 0,-149115 145903,-269995 325908,-269995 179992,0 325895,120880 325895,269995z"/>
    <path class="fil192" d="M849501 447715c0,148758 -145570,269341 -325122,269341 -179565,0 -325134,-120583 -325134,-269341 0,-148758 145569,-269341 325134,-269341 179552,0 325122,120583 325122,269341z"/>
    <path class="fil193" d="M848715 447715c0,148390 -145212,268698 -324336,268698 -179136,0 -324349,-120297 -324349,-268698 0,-148401 145213,-268698 324349,-268698 179124,0 324336,120297 324336,268698z"/>
    <path class="fil194" d="M847930 447715c0,148044 -144856,268055 -323551,268055 -178708,-11 -323563,-120011 -323563,-268055 0,-148033 144855,-268044 323563,-268044 178695,0 323551,120011 323551,268044z"/>
    <path class="fil195" d="M847157 447715c0,147676 -144523,267401 -322778,267401 -178268,0 -322790,-119714 -322790,-267401 0,-147688 144522,-267401 322790,-267401 178255,0 322778,119725 322778,267401z"/>
    <path class="fil196" d="M846371 447715c0,147331 -144165,266758 -321992,266758 -177839,-11 -322005,-119427 -322005,-266758 0,-147319 144166,-266759 322005,-266759 177827,0 321992,119440 321992,266759z"/>
    <path class="fil197" d="M845586 447715c0,146962 -143809,266104 -321207,266104 -177411,0 -321219,-119130 -321219,-266104 0,-146974 143808,-266104 321219,-266104 177398,0 321207,119142 321207,266104z"/>
    <path class="fil198" d="M844813 447715c0,146605 -143464,265462 -320434,265462 -176983,0 -320446,-118845 -320446,-265462 0,-146605 143463,-265462 320446,-265462 176970,0 320434,118857 320434,265462z"/>
    <path class="fil199" d="M844027 447715c0,146248 -143118,264819 -319648,264819 -176542,-12 -319661,-118559 -319661,-264819 0,-146260 143119,-264807 319661,-264807 176530,0 319648,118559 319648,264807z"/>
    <path class="fil200" d="M843254 447715c0,145891 -142773,264165 -318875,264165 -176114,0 -318875,-118262 -318875,-264165 0,-145891 142761,-264165 318875,-264165 176102,0 318875,118274 318875,264165z"/>
    <path class="fil201" d="M842469 447715c0,145534 -142417,263522 -318090,263522 -175686,-12 -318102,-117976 -318102,-263522 0,-145534 142416,-263510 318102,-263510 175673,-12 318090,117976 318090,263510z"/>
    <path class="fil202" d="M841683 447715c0,145177 -142059,262868 -317304,262868 -175245,0 -317317,-117691 -317317,-262868 0,-145177 142060,-262868 317317,-262868 175245,-12 317304,117691 317304,262868z"/>
    <path class="fil203" d="M840910 447715c0,144820 -141726,262225 -316531,262225 -174817,0 -316531,-117405 -316531,-262225 0,-144820 141714,-262225 316531,-262225 174816,0 316519,117405 316531,262225z"/>
    <path class="fil204" d="M840124 447715c0,144463 -141369,261583 -315745,261583 -174389,0 -315758,-117120 -315758,-261583 0,-144463 141369,-261571 315758,-261571 174376,-12 315745,117108 315745,261571z"/>
    <path class="fil205" d="M839339 447715c0,144106 -141012,260928 -314960,260928 -173960,0 -314973,-116822 -314973,-260928 0,-144106 141013,-260928 314973,-260928 173948,0 314960,116822 314960,260928z"/>
    <path class="fil206" d="M838554 447715c0,143749 -140656,260286 -314175,260286 -173520,0 -314187,-116537 -314187,-260286 0,-143749 140667,-260274 314187,-260274 173519,-12 314175,116525 314175,260274z"/>
    <path class="fil207" d="M837780 447715c0,143392 -140322,259631 -313401,259631 -173092,0 -313414,-116239 -313414,-259631 0,-143392 140322,-259631 313414,-259631 173079,-12 313401,116239 313401,259631z"/>
    <path class="fil208" d="M836995 447715c0,143035 -139965,258989 -312616,258989 -172663,0 -312629,-115954 -312629,-258989 0,-143035 139966,-258989 312629,-258989 172651,0 312616,115954 312616,258989z"/>
    <path class="fil209" d="M836210 447715c0,142678 -139608,258346 -311831,258346 -172235,0 -311843,-115668 -311843,-258346 0,-142678 139608,-258334 311843,-258334 172223,-12 311831,115656 311831,258334z"/>
    <path class="fil210" d="M835436 447715c0,142321 -139263,257692 -311057,257692 -171795,0 -311070,-115371 -311070,-257692 0,-142321 139275,-257692 311070,-257692 171794,0 311057,115371 311057,257692z"/>
    <path class="fil211" d="M834651 447715c0,141964 -138918,257049 -310272,257049 -171366,0 -310284,-115085 -310284,-257049 0,-141964 138918,-257049 310284,-257049 171354,0 310272,115085 310272,257049z"/>
    <path class="fil212" d="M833866 447715c0,141607 -138561,256395 -309487,256395 -170938,0 -309499,-114788 -309499,-256395 0,-141607 138561,-256395 309499,-256395 170926,0 309487,114788 309487,256395z"/>
    <path class="fil213" d="M833092 447715c0,141250 -138216,255752 -308713,255752 -170510,0 -308726,-114502 -308726,-255752 0,-141250 138216,-255752 308726,-255752 170497,0 308713,114502 308713,255752z"/>
    <path class="fil214" d="M832307 447715c0,140893 -137871,255110 -307928,255110 -170069,0 -307940,-114217 -307940,-255110 0,-140893 137871,-255098 307940,-255098 170069,0 307928,114205 307928,255098z"/>
    <path class="fil215" d="M831534 447715c0,140524 -137526,254455 -307155,254455 -169641,0 -307155,-113919 -307155,-254455 0,-140536 137514,-254455 307155,-254455 169629,0 307155,113919 307155,254455z"/>
    <path class="fil216" d="M830748 447715c0,140179 -137169,253813 -306369,253813 -169213,0 -306382,-113634 -306382,-253813 0,-140179 137169,-253813 306382,-253813 169200,0 306369,113634 306369,253813z"/>
    <path class="fil217" d="M829963 447715c0,139822 -136812,253158 -305584,253158 -168772,0 -305596,-113336 -305596,-253158 0,-139822 136824,-253158 305596,-253158 168772,0 305584,113347 305584,253158z"/>
    <path class="fil218" d="M829190 447715c0,139465 -136479,252516 -304811,252516 -168344,0 -304811,-113051 -304811,-252516 0,-139454 136467,-252516 304811,-252516 168332,0 304799,113062 304811,252516z"/>
    <path class="fil219" d="M828404 447715c0,139108 -136122,251873 -304025,251873 -167916,0 -304038,-112765 -304038,-251873 0,-139109 136122,-251861 304038,-251861 167903,0 304025,112764 304025,251861z"/>
    <path class="fil220" d="M827619 447715c0,138740 -135765,251219 -303240,251219 -167487,0 -303252,-112467 -303252,-251219 0,-138740 135765,-251219 303252,-251219 167475,0 303240,112479 303240,251219z"/>
    <path class="fil221" d="M826834 447715c0,138395 -135408,250576 -302455,250576 -167059,0 -302467,-112181 -302467,-250576 0,-138395 135408,-250564 302467,-250564 167047,-12 302455,112181 302455,250564z"/>
    <path class="fil222" d="M826060 447715c0,138026 -135075,249922 -301681,249922 -166619,0 -301694,-111884 -301694,-249922 0,-138026 135075,-249922 301694,-249922 166606,0 301681,111896 301681,249922z"/>
    <path class="fil223" d="M825275 447715c0,137681 -134718,249279 -300896,249279 -166190,0 -300908,-111598 -300908,-249279 0,-137669 134718,-249279 300908,-249279 166178,0 300896,111610 300896,249279z"/>
    <path class="fil224" d="M824489 447715c0,137312 -134360,248637 -300110,248637 -165762,-12 -300123,-111313 -300123,-248637 0,-137312 134361,-248625 300123,-248625 165750,0 300110,111313 300110,248625z"/>
    <path class="fil225" d="M823716 447715c0,136955 -134028,247982 -299337,247982 -165334,0 -299349,-111027 -299349,-247982 0,-136955 134015,-247982 299349,-247982 165309,0 299337,111027 299337,247982z"/>
    <path class="fil226" d="M822931 447715c0,136598 -133671,247340 -298552,247340 -164893,0 -298564,-110742 -298564,-247340 0,-136598 133671,-247340 298564,-247340 164881,0 298552,110742 298552,247340z"/>
    <path class="fil227" d="M822145 447715c0,136241 -133313,246685 -297766,246685 -164465,0 -297779,-110444 -297779,-246685 0,-136241 133314,-246685 297779,-246685 164453,0 297766,110444 297766,246685z"/>
    <path class="fil227" d="M821372 447715c0,135884 -132969,246043 -296993,246043 -164037,0 -297005,-110159 -297005,-246043 0,-135884 132968,-246043 297005,-246043 164024,0 296993,110159 296993,246043z"/>
    <path class="fil228" d="M977984 453296c0,250445 -202970,453390 -453355,453390 -250374,-12 -453343,-202945 -453343,-453390 0,-250362 202969,-453296 453343,-453296 250397,0 453355,202934 453355,453296z"/>
    <circle class="fil229 str0" cx="524641" cy="453383" r="382546"/>
   </g>
   <path class="fil230" d="M541620 225303c60529,-15314 94571,61160 87289,124604 -107,-262 -178,-535 -273,-785 952,4426 250,11304 -3570,18752 -6175,12101 -9864,12101 -12351,19895 -7567,25297 -18467,44930 -30913,59232 298,23738 4593,23298 23964,33376 107,24 203,83 298,131l9162 3236c59,24 107,24 155,48 67811,19002 97224,64456 97224,141250 0,41027 -93631,82840 -188202,83197 -101913,-381 -188203,-42170 -188203,-83197 0,-76794 29449,-122248 97236,-141250 48,-24 119,-24 167,-48l9138 -3236c107,-48 203,-107 322,-131 19383,-10078 23642,-9638 23952,-33376 -12458,-14302 -23322,-33935 -30925,-59232 -2463,-7794 -6176,-7794 -12351,-19895 -3415,-6734 -4343,-12946 -3784,-17336 -47,143 -107,297 -155,476 -10946,-130554 103068,-142274 121820,-125711z"/>
  </g>
 </g>
</svg>
