<?xml version="1.0" encoding="UTF-8" standalone="no"?>
<!-- Creator: CorelDRAW X7 -->

<svg
   xmlns:dc="http://purl.org/dc/elements/1.1/"
   xmlns:cc="http://creativecommons.org/ns#"
   xmlns:rdf="http://www.w3.org/1999/02/22-rdf-syntax-ns#"
   xmlns:svg="http://www.w3.org/2000/svg"
   xmlns="http://www.w3.org/2000/svg"
   xmlns:sodipodi="http://sodipodi.sourceforge.net/DTD/sodipodi-0.dtd"
   xmlns:inkscape="http://www.inkscape.org/namespaces/inkscape"
   xml:space="preserve"
   width="134.91513"
   height="49.999996"
   version="1.1"
   style="clip-rule:evenodd;fill-rule:evenodd;image-rendering:optimizeQuality;shape-rendering:geometricPrecision;text-rendering:geometricPrecision"
   viewBox="0 0 134423.09 50185.996"
   id="svg2"
   inkscape:version="0.91 r13725"
   sodipodi:docname="logo_AM.svg"><metadata
     id="metadata105"><rdf:RDF><cc:Work
         rdf:about=""><dc:format>image/svg+xml</dc:format><dc:type
           rdf:resource="http://purl.org/dc/dcmitype/StillImage" /><dc:title></dc:title></cc:Work></rdf:RDF></metadata><sodipodi:namedview
     pagecolor="#ffffff"
     bordercolor="#666666"
     borderopacity="1"
     objecttolerance="10"
     gridtolerance="10"
     guidetolerance="10"
     inkscape:pageopacity="0"
     inkscape:pageshadow="2"
     inkscape:window-width="1858"
     inkscape:window-height="1058"
     id="namedview103"
     showgrid="false"
     fit-margin-top="0"
     fit-margin-left="0"
     fit-margin-right="0"
     fit-margin-bottom="0"
     inkscape:zoom="8"
     inkscape:cx="74.31488"
     inkscape:cy="39.635385"
     inkscape:window-x="54"
     inkscape:window-y="-8"
     inkscape:window-maximized="1"
     inkscape:current-layer="Plan_x0020_1"
     showguides="false" /><defs
     id="defs4"><style
       type="text/css"
       id="style6"><![CDATA[
    .fil1 {fill:#0C419A}
    .fil0 {fill:white}
    .fil2 {fill:black}
    .fil3 {fill:#DAE4EB;fill-rule:nonzero}
   ]]></style></defs><g
     id="Plan_x0020_1"
     transform="translate(-544.95635,0)"><metadata
       id="CorelCorpID_0Corel-Layer" /><rect
       class="fil0"
       x="44"
       width="135417"
       height="50186"
       id="rect10"
       y="0"
       style="fill:#ffffff" /><g
       id="_514414168"><path
         class="fil1"
         d="m 71059,43331 0,-8812 -1711,0 0,2989 c -103,-92 -455,-271 -943,-271 -1940,0 -2637,1282 -2637,3126 l 0,2468 c 0,1845 697,3123 2637,3123 1460,0 2654,-712 2654,-2623 z m -1716,-181 c 0,844 -235,1295 -938,1295 -609,0 -943,-406 -943,-1376 l 0,-2944 c 0,-969 334,-1376 943,-1376 606,0 938,407 938,1376 l 0,3025 z"
         id="path13"
         inkscape:connector-curvature="0"
         style="fill:#0c419a" /><polygon
         class="fil1"
         points="42443,45796 40598,36983 40567,36983 40567,45796 38876,45796 38876,34519 41401,34519 42883,41105 42913,41105 44394,34519 46921,34519 46921,45796 45229,45796 45229,36983 45196,36983 43354,45796 "
         id="polygon15"
         style="fill:#0c419a" /><polygon
         class="fil1"
         points="74469,37391 74469,45796 72772,45796 72772,37391 "
         id="polygon17"
         style="fill:#0c419a" /><path
         class="fil2"
         d="m 74611,35402 c 0,562 -441,1018 -989,1018 -547,0 -990,-456 -990,-1018 0,-566 443,-1019 990,-1019 548,0 989,453 989,1019 z"
         id="path19"
         inkscape:connector-curvature="0"
         style="fill:#0c419a;fill-opacity:1" /><path
         class="fil1"
         d="m 64199,44906 0,-5389 c 0,-1531 -896,-2281 -2472,-2281 -1594,0 -2639,924 -2730,2625 l 1699,0 c 29,-718 197,-1185 971,-1185 558,0 833,374 833,1076 l 3,659 c -2522,353 -3704,1671 -3704,3308 0,1153 643,2239 1926,2239 894,0 1175,-231 1860,-787 12,163 47,351 95,625 l 1625,0 c -45,-279 -106,-627 -106,-890 z m -1703,-1225 c -357,358 -669,784 -1203,784 -480,0 -821,-357 -821,-990 0,-1187 886,-1460 2024,-1722 l 0,1928 z"
         id="path21"
         inkscape:connector-curvature="0"
         style="fill:#0c419a" /><path
         class="fil1"
         d="m 53653,44906 0,-5389 c 0,-1531 -897,-2281 -2481,-2281 -1591,0 -2636,924 -2728,2625 l 1701,0 c 28,-718 196,-1185 969,-1185 563,0 837,374 837,1076 l 0,659 c -2528,353 -3705,1671 -3705,3308 0,1153 642,2239 1927,2239 889,0 1174,-231 1862,-787 12,162 49,351 100,625 l 1625,0 c -47,-279 -107,-627 -107,-890 z m -1711,-1225 c -353,358 -669,784 -1203,784 -479,0 -819,-357 -819,-990 0,-1187 886,-1460 2022,-1722 l 0,1928 z"
         id="path23"
         inkscape:connector-curvature="0"
         style="fill:#0c419a" /><path
         class="fil1"
         d="m 57780,44476 c -869,-2 -930,-500 -930,-1115 l 0,-8842 -1700,0 0,8779 c 0,1421 615,2616 2643,2616 l 167,0 0,-1438 -180,0 z"
         id="path25"
         inkscape:connector-curvature="0"
         style="fill:#0c419a" /><path
         class="fil1"
         d="m 81311,41923 0,-1560 c 0,-1844 -698,-3127 -2639,-3127 -1940,0 -2632,1283 -2632,3127 l 0,2468 c 0,1845 692,3123 2632,3123 1761,0 2497,-1048 2621,-2623 0,0 11,-149 2,-219 l -1683,0 -3,219 c -40,830 -369,1187 -937,1187 -606,0 -937,-406 -937,-1377 l 0,-1218 3576,0 z m -3576,-1876 c 0,-966 331,-1371 937,-1371 609,0 940,405 940,1371 l 0,440 -1877,0 0,-440 z"
         id="path27"
         inkscape:connector-curvature="0"
         style="fill:#0c419a" /><path
         class="fil1"
         d="m 62107,32766 -1819,0 2102,-11277 2305,0 2251,11277 -1816,0 -346,-2580 -2315,0 -362,2580 z m 590,-4060 1856,0 -917,-4967 -33,0 -906,4967 z"
         id="path29"
         inkscape:connector-curvature="0"
         style="fill:#0c419a" /><path
         class="fil1"
         d="m 86549,32766 0,-8401 1619,0 0,713 29,0 c 409,-714 1377,-872 1927,-872 l 350,0 0,1828 c -306,-79 -592,-171 -1094,-171 -572,0 -1135,375 -1135,1126 l 0,5777 -1696,0 z"
         id="path31"
         inkscape:connector-curvature="0"
         style="fill:#0c419a" /><path
         class="fil1"
         d="m 84912,24365 0,5435 c 0,1844 -698,3123 -2638,3123 -1942,0 -2638,-1279 -2638,-3123 l 0,-5435 1700,0 0,5747 c 0,970 331,1376 938,1376 605,0 938,-406 938,-1376 l 0,-5747 1700,0 z"
         id="path33"
         inkscape:connector-curvature="0"
         style="fill:#0c419a" /><path
         class="fil1"
         d="m 97613,32765 0,-5432 c 0,-1787 698,-3127 2640,-3127 1940,0 2636,1340 2636,3127 l 0,5432 -1698,0 0,-5735 c 0,-901 -356,-1321 -938,-1321 -592,0 -945,420 -945,1321 l 0,5735 -1695,0 z"
         id="path35"
         inkscape:connector-curvature="0"
         style="fill:#0c419a" /><path
         class="fil1"
         d="m 96129,31879 0,-5392 c 0,-1532 -893,-2281 -2469,-2281 -1593,0 -2639,921 -2728,2624 l 1698,0 c 29,-717 196,-1186 974,-1186 555,0 829,377 829,1079 l 0,653 c -2522,357 -3701,1675 -3701,3314 0,1153 643,2238 1927,2238 888,0 1174,-232 1853,-786 13,161 50,351 101,624 l 1624,0 c -46,-279 -108,-624 -108,-887 z m -1701,-1228 c -354,355 -672,785 -1203,785 -479,0 -817,-359 -817,-990 0,-1188 886,-1461 2020,-1722 l 0,1927 z"
         id="path37"
         inkscape:connector-curvature="0"
         style="fill:#0c419a" /><path
         class="fil1"
         d="m 57774,31446 c -870,-3 -934,-500 -934,-1113 l 0,-8844 -1696,0 0,8779 c 0,1421 614,2615 2643,2615 l 162,0 0,-1437 -175,0 z"
         id="path39"
         inkscape:connector-curvature="0"
         style="fill:#0c419a" /><path
         class="fil1"
         d="m 69324,26317 c 0,-437 316,-673 778,-673 576,0 811,324 909,1048 l 1519,-136 c -157,-1082 -687,-2350 -2509,-2350 -1331,0 -2377,921 -2377,2250 0,2295 3333,2844 3333,4295 0,471 -332,737 -797,737 -809,0 -1059,-623 -1175,-1331 l -1570,264 c 185,1594 1176,2502 2730,2502 1445,0 2491,-765 2491,-2264 0,-2501 -3332,-3032 -3332,-4342 z"
         id="path41"
         inkscape:connector-curvature="0"
         style="fill:#0c419a" /><path
         class="fil1"
         d="m 75236,26317 c 0,-437 317,-673 776,-673 571,0 808,324 907,1048 l 1514,-136 c -153,-1082 -681,-2350 -2498,-2350 -1332,0 -2375,921 -2375,2250 0,2295 3323,2844 3323,4295 0,471 -331,737 -791,737 -809,0 -1058,-623 -1173,-1331 l -1569,264 c 183,1594 1175,2502 2725,2502 1441,0 2490,-765 2490,-2264 0,-2501 -3329,-3032 -3329,-4342 z"
         id="path43"
         inkscape:connector-curvature="0"
         style="fill:#0c419a" /><path
         class="fil1"
         d="m 115902,28892 0,-1559 c 0,-1844 -694,-3127 -2638,-3127 -1940,0 -2638,1283 -2638,3127 l 0,2467 c 0,1844 698,3123 2638,3123 1758,0 2498,-1044 2623,-2620 0,0 8,-151 0,-219 l -1685,0 -2,216 c -45,834 -374,1188 -936,1188 -607,0 -940,-406 -940,-1376 l 0,-1220 3578,0 z m -3578,-1874 c 0,-970 333,-1374 940,-1374 607,0 941,404 941,1374 l 0,438 -1881,0 0,-438 z"
         id="path45"
         inkscape:connector-curvature="0"
         style="fill:#0c419a" /><path
         class="fil1"
         d="m 58579,21489 0,1599 490,0 c -157,406 -486,1277 -486,1277 l 828,0 715,-1277 0,-1599 -1547,0 z"
         id="path47"
         inkscape:connector-curvature="0"
         style="fill:#0c419a" /><path
         class="fil1"
         d="m 107810,29986 -2,314 c -43,834 -367,1188 -932,1188 -609,0 -942,-406 -942,-1376 l 0,-3094 c 0,-970 333,-1374 942,-1374 603,0 938,404 938,1374 l 0,315 1700,0 c 0,-1844 -702,-3127 -2638,-3127 -1945,0 -2641,1283 -2641,3127 l 0,2467 c 0,1844 696,3123 2641,3123 2072,0 2626,-1505 2626,-2937 l -1692,0 z"
         id="path49"
         inkscape:connector-curvature="0"
         style="fill:#0c419a" /><path
         class="fil1"
         d="m 23868,27014 c 96,-209 141,-488 86,-768 -86,-413 -373,-605 -730,-533 -325,65 -481,272 -573,730 -105,552 -345,928 -832,1026 -546,111 -1034,-211 -1156,-822 -64,-313 -29,-566 33,-719 l 392,36 c -49,113 -105,340 -49,625 85,425 408,529 647,481 325,-64 449,-287 548,-757 129,-578 356,-899 870,-1000 543,-111 1086,146 1234,884 62,302 23,652 -66,845 l -404,-28 z"
         id="path51"
         inkscape:connector-curvature="0"
         style="fill:#0c419a" /><path
         class="fil1"
         d="m 19523,22606 641,595 8,334 -637,-427 -12,-502 z m 2714,-149 30,1235 1292,-32 -38,-1385 387,-11 48,1802 -3575,93 -47,-1728 388,-11 36,1314 1128,-31 -32,-1234 383,-12 z"
         id="path53"
         inkscape:connector-curvature="0"
         style="fill:#0c419a" /><path
         class="fil1"
         d="m 24181,19145 c 61,158 100,476 43,860 -133,891 -863,1459 -2029,1285 -1112,-169 -1756,-950 -1609,-1929 59,-389 192,-628 270,-727 l 359,162 c -108,136 -204,345 -245,608 -111,741 346,1313 1272,1451 873,133 1491,-230 1607,-993 39,-254 18,-515 -47,-692 l 379,-25 z"
         id="path55"
         inkscape:connector-curvature="0"
         style="fill:#0c419a" /><path
         class="fil1"
         d="m 21137,17136 1981,718 c 1046,379 1605,58 1827,-556 236,-651 -8,-1289 -1039,-1663 l -1966,-714 -142,395 1995,722 c 738,268 964,678 801,1118 -144,400 -572,584 -1320,312 l -1993,-724 -144,392 z"
         id="path57"
         inkscape:connector-curvature="0"
         style="fill:#0c419a" /><path
         class="fil1"
         d="m 22811,13291 c 66,-202 198,-478 341,-718 230,-375 461,-573 737,-637 213,-55 471,-8 713,137 397,244 525,636 463,985 l 11,9 c 207,-157 501,-149 860,-24 482,168 815,284 965,301 l -222,365 c -113,-6 -412,-107 -839,-265 -470,-176 -719,-124 -928,190 l -202,330 1324,806 -214,353 -3009,-1832 z m 1602,491 218,-360 c 227,-376 144,-756 -207,-966 -395,-242 -722,-92 -947,282 -104,168 -156,296 -176,369 l 1112,675 z"
         id="path59"
         inkscape:connector-curvature="0"
         style="fill:#0c419a" /><polygon
         class="fil1"
         points="27570,12532 24820,10242 25088,9921 27835,12211 "
         id="polygon61"
         style="fill:#0c419a" /><polygon
         class="fil1"
         points="26111,9320 26824,8657 28990,10991 29295,10707 27130,8377 27843,7710 27575,7422 25845,9031 "
         id="polygon63"
         style="fill:#0c419a" /><path
         class="fil1"
         d="m 30999,7343 -1027,683 713,1075 1151,-768 216,324 -1499,997 -1981,-2977 1439,-958 214,323 -1093,724 626,942 1031,-684 210,319 z m -1566,-2221 -164,860 -279,185 24,-767 419,-278 z"
         id="path65"
         inkscape:connector-curvature="0"
         style="fill:#0c419a" /><path
         class="fil1"
         d="m 34155,7030 c 218,67 502,80 770,-9 402,-132 559,-439 445,-789 -105,-311 -327,-444 -792,-480 -560,-39 -963,-230 -1121,-703 -175,-530 86,-1053 676,-1247 307,-101 564,-96 722,-53 l 10,396 c -116,-37 -351,-65 -624,26 -415,135 -480,465 -403,697 103,317 340,410 819,455 586,59 933,244 1098,743 173,527 -19,1097 -734,1332 -292,98 -647,101 -847,32 l -19,-400 z"
         id="path67"
         inkscape:connector-curvature="0"
         style="fill:#0c419a" /><path
         class="fil1"
         d="m 37895,6706 c -841,123 -1527,-518 -1682,-1588 -161,-1124 352,-1950 1196,-2072 869,-125 1533,535 1683,1585 175,1215 -393,1959 -1193,2075 l -4,0 z m -37,-373 c 648,-92 918,-813 801,-1617 -101,-704 -535,-1394 -1215,-1293 -679,97 -915,854 -804,1621 106,744 571,1381 1214,1289 l 4,0 z"
         id="path69"
         inkscape:connector-curvature="0"
         style="fill:#0c419a" /><path
         class="fil1"
         d="m 42245,6440 c -150,79 -463,150 -850,131 -899,-42 -1542,-709 -1488,-1885 52,-1123 764,-1846 1754,-1800 391,18 643,126 751,196 l -125,371 c -146,-93 -366,-165 -631,-177 -748,-38 -1269,477 -1313,1415 -40,878 383,1457 1153,1491 257,12 517,-34 685,-116 l 64,374 z"
         id="path71"
         inkscape:connector-curvature="0"
         style="fill:#0c419a" /><polygon
         class="fil1"
         points="43522,6803 44188,3290 43780,3210 43115,6727 "
         id="polygon73"
         style="fill:#0c419a" /><path
         class="fil1"
         d="m 45459,6131 -681,954 -401,-141 2199,-3021 468,165 -146,3733 -415,-145 47,-1175 -1071,-370 z m 1110,4 37,-1078 c 14,-241 39,-459 63,-667 l -14,-6 c -109,183 -229,376 -361,561 l -635,873 910,317 z"
         id="path75"
         inkscape:connector-curvature="0"
         style="fill:#0c419a" /><polygon
         class="fil1"
         points="49362,5083 49726,5287 48161,8066 49350,8735 49160,9071 47608,8199 "
         id="polygon77"
         style="fill:#0c419a" /><polygon
         class="fil1"
         points="52000,6706 53357,7783 53117,8087 52087,7269 51386,8154 52356,8924 52118,9224 51148,8457 50347,9466 51431,10325 51190,10629 49780,9510 "
         id="polygon79"
         style="fill:#0c419a" /><path
         class="fil1"
         d="m 29943,17227 0,414 2628,0 7,-6 c 127,-155 206,-280 294,-408 l -2929,0 z"
         id="path81"
         inkscape:connector-curvature="0"
         style="fill:#0c419a" /><path
         class="fil1"
         d="m 31049,18478 c 274,612 61,1488 -324,1927 688,872 2410,511 3334,261 254,-53 451,-504 688,-329 64,51 478,-386 425,27 0,249 -108,520 -369,615 -192,72 -752,239 -752,239 -990,313 -1524,450 -2514,926 -455,240 -339,1117 -274,1435 60,322 366,1464 97,2035 -217,467 -987,897 -997,1473 0,249 413,550 173,756 -153,132 -271,152 -363,64 0,0 -745,-764 -652,-1025 -7,-102 837,-1308 474,-1852 -200,190 -220,696 -626,882 -194,93 -467,-133 -633,-37 -64,37 -56,295 -120,353 -60,65 -325,58 -386,-58 -152,-316 -92,-849 -37,-1115 85,-391 901,36 636,-519 -96,-202 -222,-470 -213,-897 9,-329 281,-708 13,-877 -303,-149 -1019,-467 -1032,-841 -83,-895 1571,-895 1949,-1693 0,-387 -483,-713 -386,-1324 47,-310 284,-663 683,-717 500,-68 804,-12 1206,291 z"
         id="path83"
         inkscape:connector-curvature="0"
         style="fill:#0c419a" /><path
         class="fil1"
         d="m 48808,32303 c -515,-124 -1100,-490 -1388,-940 -205,-313 -351,-670 -515,-1035 -560,-1225 -881,-2569 -1248,-3018 -641,-796 -1887,-1901 -2732,-2448 -248,-162 -478,-280 -687,-369 205,-993 156,-2046 156,-2046 0,-205 5,-210 77,-294 216,-172 359,-380 294,-706 -5,-47 -186,-436 -238,-519 303,121 1633,436 2020,407 663,-45 2236,-1140 2477,-1306 174,-102 274,-126 364,-153 87,-24 317,-168 368,-309 22,-64 -43,-521 -203,-549 -70,-6 -251,105 -311,86 -40,-12 -80,-81 -112,-81 -88,-2 -178,137 -218,205 -55,88 -76,247 -137,321 -108,138 -1637,572 -2143,811 -89,40 -182,73 -271,45 -402,-124 -2018,-1050 -2658,-917 -201,42 -515,155 -657,8 -72,-82 -111,-209 -51,-334 69,-144 406,-161 469,-326 77,-184 -42,-546 -38,-565 0,-71 80,-106 70,-165 -7,-65 -90,-135 -183,-268 -98,-133 -125,-474 -215,-622 20,-44 82,-353 -276,-563 -363,-209 -955,-256 -1289,38 -188,167 -441,105 -638,207 -382,200 -138,599 -764,1166 -275,248 -113,721 -50,828 -266,498 206,1082 629,983 136,133 228,191 378,184 4,16 7,32 16,47 -98,34 -298,138 -391,184 -241,124 -378,279 -599,493 -712,688 -1766,1760 -4276,3019 -285,174 -1107,99 -1107,278 57,84 234,174 234,174 4,100 -306,144 -471,179 -144,81 137,198 242,296 559,101 848,-24 1323,-422 1906,-740 3327,-1464 4876,-2471 326,-215 514,17 775,999 105,381 -401,692 -594,1231 -218,603 -193,1055 -32,1405 -178,391 -724,910 -724,910 0,0 -1303,1075 -1960,1727 -567,565 -1259,432 -1784,685 -542,261 -1032,673 -1491,1052 -333,274 -667,522 -1113,705 -172,70 -254,93 -439,117 -230,29 -366,243 -346,438 16,179 177,580 350,928 92,189 302,630 576,687 188,39 578,116 666,-54 118,-223 -381,-288 -414,-582 -24,-186 -44,-495 16,-675 109,-310 556,-525 821,-670 824,-445 3258,-1019 3987,-1237 1049,-460 1883,-837 2563,-1284 604,-367 1094,-947 1472,-1427 897,446 2225,1003 3106,1342 519,197 237,531 527,1276 205,533 574,924 1802,2377 177,239 -13,406 27,671 46,290 186,300 450,293 251,-6 501,0 751,0 318,0 716,2 1029,-3 116,0 346,-36 346,-207 0,-188 -338,-201 -494,-237 z"
         id="path85"
         inkscape:connector-curvature="0"
         style="fill:#0c419a" /><path
         class="fil1"
         d="m 53659,16186 c -1002,-645 -2149,-1785 -3279,-1596 -595,-46 -108,-679 -271,-927 -273,-483 -304,-665 -1358,-564 -294,31 -527,137 -637,390 -96,281 -8,214 -76,483 -84,265 -398,386 -96,582 24,89 20,230 0,505 -15,191 220,176 322,236 -1203,880 -3363,725 -4421,38 -197,-135 -878,-106 -882,-30 4,177 443,221 608,406 -76,26 -205,-8 -148,107 55,111 864,257 869,257 620,420 1585,623 2340,772 1530,224 1963,277 2166,1263 203,993 -38,1908 -259,3266 -185,1212 -76,1967 116,3153 37,222 155,584 45,677 -213,191 -771,350 -1013,563 -105,346 868,122 1520,156 310,25 383,-304 383,-501 55,-1860 248,-2439 546,-3601 173,1002 471,2690 692,3705 -254,296 -925,566 -760,732 193,188 536,153 709,110 417,-97 652,-229 954,-505 0,0 337,-4070 227,-6084 -60,-1120 1317,-1910 1876,-2911 136,-256 132,-485 -173,-682 z m -1726,2142 c 56,-417 -198,-1536 -66,-1938 l 1031,389 c -165,258 -760,984 -965,1549 z"
         id="path87"
         inkscape:connector-curvature="0"
         style="fill:#0c419a" /><path
         class="fil1"
         d="m 40690,12773 c 441,97 1354,538 1471,580 120,37 383,354 475,389 51,14 68,23 113,-47 56,-74 212,70 396,44 123,-25 271,-326 251,-364 -101,-147 -671,-379 -962,-420 -317,-153 -1041,-621 -1619,-829 -1322,-466 -2710,-1155 -3984,-394 -532,-224 -543,-912 -1468,-842 -439,34 -757,374 -862,677 -109,305 -150,684 46,1062 108,204 321,304 534,374 103,40 219,62 327,96 147,57 174,178 348,154 130,-17 233,-42 368,-33 123,8 435,57 483,-109 6,0 9,0 15,4 11,302 -49,1171 -203,1251 -217,46 -308,-88 -824,-238 -512,-144 -1713,-295 -1733,625 -40,1479 137,1954 -885,3207 -177,219 -476,227 -302,454 136,142 366,36 474,-49 259,658 1136,-324 1324,-474 398,-310 -47,-583 139,-883 321,-624 818,-884 929,-1354 511,401 1137,718 1776,665 266,-51 506,-146 801,-451 302,-305 382,-1683 406,-2348 56,-1350 950,-1016 2166,-747 z"
         id="path89"
         inkscape:connector-curvature="0"
         style="fill:#0c419a" /><path
         class="fil1"
         d="m 42117,12201 144,74 c 0,0 395,214 250,168 l 351,174 6219,0 0,-416 -6964,0 z m -12174,0 0,416 4136,0 c -6,-117 -14,-263 -20,-416 l -4116,0 z"
         id="path91"
         inkscape:connector-curvature="0"
         style="fill:#0c419a" /><path
         class="fil1"
         d="m 46215,32529 c 0,0 9,-121 26,-232 l -12983,0 c 89,151 108,296 85,414 l 12942,0 c -20,-61 -57,-101 -70,-182 z m -16272,-232 0,414 1434,0 c -106,-149 -187,-298 -242,-414 l -1192,0 z"
         id="path93"
         inkscape:connector-curvature="0"
         style="fill:#0c419a" /><path
         class="fil1"
         d="m 46188,27275 185,413 2686,0 0,-413 -2871,0 z m -15073,413 4987,0 c 82,-73 254,-222 469,-413 l -5593,0 c 68,142 132,288 137,413 z"
         id="path95"
         inkscape:connector-curvature="0"
         style="fill:#0c419a" /><path
         class="fil1"
         d="m 47954,22255 -4904,0 c -44,57 -81,129 -140,169 0,0 -8,96 -20,241 l 5048,0 c -4,-36 -9,-72 -9,-112 0,-93 20,-206 25,-298 z m -16167,338 c -12,13 -21,47 -29,72 l 3087,0 c 240,-141 460,-281 666,-414 l -2812,0 c -464,177 -909,342 -912,342 z"
         id="path97"
         inkscape:connector-curvature="0"
         style="fill:#0c419a" /><path
         class="fil1"
         d="m 46530,17347 c -169,-32 -338,-83 -506,-120 l -4382,0 c 27,84 57,162 57,162 0,0 53,175 108,248 l 3,4 6128,0 c -225,-105 -631,-178 -1408,-294 z m -11433,-113 0,2 c 25,84 60,230 46,405 l 2670,0 260,-414 -2972,0 -4,7 z"
         id="path99"
         inkscape:connector-curvature="0"
         style="fill:#0c419a" /></g><path
       style="fill:#eeeeee;fill-opacity:1"
       d="m -0.06325459,36.551686 7.8553e-4,2.799508 c 9.5028e-4,3.386991 0.01121618,3.654638 0.16964544,4.422555 0.21431365,1.038792 0.76267706,2.17138 1.49153172,3.080605 0.4291359,0.535334 1.0744915,1.1332 1.6807347,1.557053 1.1635203,0.813474 2.4108477,1.26264 3.9912651,1.500714 0.2574521,0.03878 8.8992651,0.0618 13.3489731,0.07557 4.359413,0.01349 13.0783,0.0069 13.0783,0.0069 C 15.149232,50.061625 0,49.999995 0,49.999995"
       id="path4912"
       inkscape:connector-curvature="0"
       transform="matrix(1003.7199,0,0,1003.7201,47.997358,0)"
       sodipodi:nodetypes="csssssacc" /><path
       style="fill:#eeeeee;fill-opacity:1"
       d="m 122.01213,50.005605 2.48613,-0.0047 c 2.5989,-0.0049 2.57689,-0.0045 3.02932,-0.05582 1.46672,-0.166506 2.84536,-0.675613 4.03511,-1.490094 1.07843,-0.738275 1.94677,-1.69829 2.54775,-2.816726 0.38007,-0.707322 0.65429,-1.535422 0.76996,-2.325202 0.0673,-0.459235 0.065,-0.377688 0.0695,-2.527915 l -0.0349,-1.990695 -1e-5,11.205541 c 0,0 -22.9792,0.02466 -12.90288,0.0056 z"
       id="path4914"
       inkscape:connector-curvature="0"
       transform="matrix(1003.7199,0,0,1003.7201,47.997358,0)"
       sodipodi:nodetypes="cscssccccsc" /><path
       class="fil3"
       d="M 897,22583.697 897,42450 c 0,1873 848,3578 2211,4815 1375,1248 3277,2024 5369,2024 l 118549,0 c 2093,0 3996,-777 5370,-2024 1365,-1236 2211,-2942 2211,-4815 l -40.1,-19866.303 897.97,0 L 135504,42450 c 4.2,2131.995 -961,4073 -2507,5476 -1533,1392 -3648,2260 -5971,2260 l -118549,0 C 6155,50186 4040,49321 2505,47927 961,46525 0,44586 0,42450 L 0,22583.697 Z"
       id="path101"
       inkscape:connector-curvature="0"
       style="fill:#dae4eb;fill-rule:nonzero"
       sodipodi:nodetypes="cscsscsccscsscscc" /></g></svg>